<svg width="166" height="172" viewBox="0 0 166 172" fill="none" xmlns="http://www.w3.org/2000/svg">
<rect width="166" height="172" fill="white"/>
<path d="M51.2043 32.0102H51.9157C54.5987 32.0102 56.3366 33.8294 57.1293 37.4576C57.1293 40.7707 55.1577 42.6712 51.2043 43.1489C47.7285 42.3968 45.9906 40.7402 45.9906 38.169V36.9799C45.9906 34.4086 47.7285 32.7521 51.2043 32V32.0102ZM51.438 53.8201C54.7918 53.8201 56.6923 55.8731 57.1293 59.9789V102.887C57.1293 105.774 55.7878 107.745 53.0946 108.813L50.9604 109.046C47.637 108.142 45.9804 106.475 45.9804 104.066V58.8C45.9804 56.1576 47.7996 54.4909 51.438 53.8201Z" fill="#99D0EB"/>
<path d="M112.387 32.0101H113.576C116.381 32.0101 118.038 33.9817 118.556 37.9352V81.0774C118.556 92.3788 113.18 100.834 102.437 106.444C98.7277 108.182 94.8555 109.046 90.8208 109.046C79.8751 109.046 71.4195 103.436 65.4538 92.2162C64.0309 88.2627 63.3195 84.6345 63.3195 81.3112C63.3195 70.3656 68.9295 61.9099 80.1496 55.9441C84.103 54.5213 87.7312 53.8099 91.0545 53.8099C96.7459 53.8099 102.193 55.6291 107.407 59.2675V36.99C108.159 33.6667 109.816 32.0101 112.387 32.0101ZM74.7022 80.366V82.5003C74.7022 88.7811 78.3406 93.5983 85.6072 96.9623C87.3044 97.44 88.7272 97.6737 89.8756 97.6737H92.0099C97.7418 97.6737 102.325 94.5943 105.761 88.4253C106.594 87.0432 107.143 84.6752 107.417 81.3112C107.417 75.2642 104.419 70.4469 98.4126 66.8491C96.1564 65.7414 94.0222 65.1925 92.0099 65.1925H89.8756C83.5948 65.1925 78.7776 68.8309 75.4136 76.0975C74.9359 77.7948 74.7022 79.2176 74.7022 80.366Z" fill="#99D0EB"/>
<path d="M134.267 111.535C123.423 128.598 104.357 139.92 82.6386 139.92C60.9201 139.92 41.844 128.598 31 111.535" stroke="#99D0EB" stroke-width="8" stroke-miterlimit="10" stroke-linecap="round"/>
</svg>
