<svg width="150" height="150" viewBox="0 0 150 150" fill="none" xmlns="http://www.w3.org/2000/svg">
<rect width="150" height="150" rx="30" fill="white"/>
<path d="M46.2689 27.9158H46.9117C49.3362 27.9158 50.9066 29.5023 51.6229 32.6665C51.6229 35.5559 49.8413 37.2133 46.2689 37.6299C43.1282 36.974 41.5578 35.5293 41.5578 33.2869V32.2499C41.5578 30.0075 43.1282 28.5629 46.2689 27.907V27.9158ZM46.4801 46.9362C49.5107 46.9362 51.228 48.7265 51.6229 52.3072V89.7274C51.6229 92.2446 50.4107 93.964 47.977 94.8946L46.0485 95.0985C43.0455 94.3097 41.5486 92.8561 41.5486 90.7556V51.2791C41.5486 48.9747 43.1924 47.5211 46.4801 46.9362Z" fill="#99D0EB"/>
<path d="M101.554 27.9158H102.629C105.163 27.9158 106.66 29.6352 107.129 33.083V70.7071C107.129 80.5629 102.271 87.937 92.5636 92.8295C89.2116 94.3451 85.7127 95.0984 82.0669 95.0984C72.1762 95.0984 64.5356 90.206 59.1448 80.4211C57.8592 76.9733 57.2163 73.8092 57.2163 70.9109C57.2163 61.3653 62.2856 53.9912 72.4242 48.7885C75.9966 47.5476 79.2751 46.9272 82.2781 46.9272C87.4209 46.9272 92.3432 48.5137 97.0543 51.6867V32.2587C97.7339 29.3605 99.2308 27.9158 101.554 27.9158ZM67.5018 70.0866V71.9479C67.5018 77.4253 70.7895 81.6265 77.3557 84.5602C78.8894 84.9767 80.1751 85.1806 81.2128 85.1806H83.1413C88.3208 85.1806 92.4626 82.495 95.5666 77.1151C96.3197 75.9097 96.8156 73.8446 97.0635 70.9109C97.0635 65.6373 94.3544 61.4362 88.9269 58.2986C86.8882 57.3326 84.9597 56.854 83.1413 56.854H81.2128C75.5374 56.854 71.1844 60.027 68.1447 66.3641C67.7131 67.8443 67.5018 69.0851 67.5018 70.0866Z" fill="#99D0EB"/>
<path d="M121.326 97.2686C111.527 112.15 94.2985 122.023 74.6733 122.023C55.0482 122.023 37.8108 112.15 28.012 97.2686" stroke="#99D0EB" stroke-width="8" stroke-miterlimit="10" stroke-linecap="round"/>
</svg>
