<svg width="150" height="150" viewBox="0 0 150 150" fill="none" xmlns="http://www.w3.org/2000/svg">
<rect width="150" height="150" rx="30" fill="#004A5C"/>
<g clip-path="url(#clip0_2_28)">
<path d="M15.8047 67.5477C19.5368 67.5477 22.3188 69.4967 24.154 73.3915C24.4566 74.4913 24.6095 75.4023 24.6095 76.1247V83.5629C24.6095 84.4739 24.001 85.0303 22.7874 85.232C21.6225 84.9783 21.0433 84.3991 21.0433 83.488C19.423 84.6529 17.6789 85.232 15.808 85.232C12.3297 85.232 9.64855 83.5108 7.7646 80.0715C7.25701 78.9197 7.00647 77.8069 7.00647 76.7331V76.0498C7.00647 72.9522 8.60083 70.4468 11.7863 68.5368C13.0878 67.8796 14.4284 67.5509 15.808 67.5509L15.8047 67.5477ZM10.5661 76.3492V76.424C10.5661 78.8904 11.9067 80.5856 14.5878 81.5097L15.424 81.5845H16.2603C18.0824 81.5845 19.5726 80.4717 20.7375 78.2462C20.9392 77.5368 21.0401 76.8796 21.0401 76.2743C21.0401 74.0357 19.8004 72.3926 17.321 71.3416L16.257 71.1887H15.4208C13.6637 71.1887 12.2223 72.1518 11.0965 74.0715C10.7418 74.7678 10.5661 75.526 10.5661 76.3492Z" fill="white"/>
<path d="M42.0531 60.5652H42.4338C43.3318 60.5652 43.8622 61.1964 44.0281 62.4621V76.2745C44.0281 79.8927 42.3069 82.5999 38.8676 84.396C37.68 84.9524 36.4403 85.229 35.1485 85.229C31.6442 85.229 28.937 83.4329 27.027 79.8407C26.5715 78.5749 26.3438 77.4133 26.3438 76.3494C26.3438 72.845 28.1398 70.1379 31.732 68.2279C32.9978 67.7723 34.1594 67.5446 35.2234 67.5446C37.0455 67.5446 38.7895 68.127 40.4587 69.2919V62.1595C40.6995 61.0956 41.2299 60.5652 42.0531 60.5652ZM29.988 76.0467V76.73C29.988 78.7409 31.1529 80.2832 33.4793 81.3602C34.0227 81.5131 34.4782 81.588 34.8459 81.588H35.5292C37.3644 81.588 38.8318 80.6021 39.9316 78.627C40.1984 78.1845 40.3741 77.4264 40.462 76.3494C40.462 74.4133 39.5021 72.871 37.5791 71.7192C36.8568 71.3645 36.1735 71.1888 35.5292 71.1888H34.8459C32.8351 71.1888 31.2928 72.3537 30.2158 74.6802C30.0628 75.2235 29.988 75.6791 29.988 76.0467Z" fill="white"/>
<path d="M54.5673 67.5477C58.2994 67.5477 61.0814 69.4967 62.9165 73.3915C63.2192 74.4913 63.3721 75.4023 63.3721 76.1247V83.5629C63.3721 84.4739 62.7636 85.0303 61.55 85.232C60.3851 84.9783 59.8059 84.3991 59.8059 83.488C58.1855 84.6529 56.4415 85.232 54.5706 85.232C51.0923 85.232 48.4111 83.5108 46.5272 80.0715C46.0196 78.9197 45.769 77.8069 45.769 76.7331V76.0498C45.769 72.9522 47.3634 70.4468 50.5489 68.5368C51.8504 67.8796 53.1909 67.5509 54.5706 67.5509L54.5673 67.5477ZM49.332 76.3524V76.4273C49.332 78.8937 50.6725 80.5889 53.3536 81.513L54.1899 81.5878H55.0261C56.8482 81.5878 58.3385 80.475 59.5033 78.2494C59.7051 77.5401 59.8059 76.8828 59.8059 76.2776C59.8059 74.039 58.5662 72.3958 56.0868 71.3448L55.0228 71.1919H54.1866C52.4296 71.1919 50.9881 72.155 49.8623 74.0748C49.5077 74.7711 49.332 75.5292 49.332 76.3524Z" fill="white"/>
<path d="M74.5356 67.5477C77.2037 67.5477 79.5302 68.7125 81.5183 71.039C83.4901 68.7125 85.8426 67.5477 88.5757 67.5477C92.002 67.5477 94.6603 69.2429 96.5443 72.6334C97.1007 73.834 97.3805 75.0249 97.3805 76.1995V83.5596C97.3805 84.4576 96.7721 85.014 95.5584 85.2288C94.3935 84.975 93.8111 84.4186 93.8111 83.5596V76.655C93.8111 73.9219 92.4445 72.1258 89.7146 71.2668L88.8783 71.1919H88.195C86.3729 71.1919 84.9055 72.2039 83.7927 74.2277C83.4901 74.872 83.3371 75.5065 83.3371 76.1247V83.1073C83.3371 84.5227 82.7059 85.232 81.4402 85.232C80.4673 85.232 79.8849 84.5748 79.6961 83.2603V76.0498C79.6961 74.2017 78.6582 72.7114 76.5855 71.5726C75.8762 71.3188 75.297 71.1919 74.8415 71.1919H74.1582C72.1343 71.1919 70.592 72.3568 69.528 74.6832C69.3263 75.2917 69.2254 76.0498 69.2254 76.9609V83.5629C69.2254 84.4869 68.617 85.0433 67.4033 85.232C66.2384 84.9783 65.656 84.3991 65.656 83.488V76.5054C65.656 72.8871 67.3773 70.18 70.8165 68.3839C72.0042 67.8275 73.2439 67.5477 74.5356 67.5477Z" fill="white"/>
<path d="M107.988 67.5479C111.072 67.5479 113.578 68.9633 115.501 71.7973C116.36 73.2257 116.793 74.7192 116.793 76.2746V76.5023C116.793 79.9806 114.997 82.6618 111.404 84.5457C110.152 85.0012 108.99 85.229 107.913 85.229C104.409 85.229 101.702 83.4329 99.7916 79.8407C99.336 78.5001 99.1083 77.3353 99.1083 76.3494C99.1083 72.845 100.904 70.1379 104.497 68.2279C105.762 67.7724 106.924 67.5446 107.988 67.5446V67.5479ZM102.753 76.1249V76.6552C102.753 78.7182 103.917 80.2865 106.244 81.3602C106.787 81.5132 107.243 81.588 107.61 81.588H108.294C110.506 81.588 112.101 80.2735 113.074 77.6411L113.227 76.3526C113.227 74.4687 112.315 72.9492 110.493 71.8006C109.748 71.3971 109.013 71.1921 108.294 71.1921H107.61C105.648 71.1921 104.132 72.3049 103.058 74.5305C102.857 75.152 102.756 75.6824 102.756 76.1249H102.753Z" fill="white"/>
<path d="M120.437 60.5652H120.665C121.524 60.5652 122.08 61.1476 122.334 62.3092C122.334 63.37 121.703 63.9784 120.437 64.1314C119.324 63.8906 118.768 63.3602 118.768 62.537V62.1563C118.768 61.3331 119.324 60.8027 120.437 60.562V60.5652ZM120.512 67.5479C121.585 67.5479 122.194 68.2051 122.334 69.5197V83.2572C122.334 84.1813 121.904 84.8125 121.042 85.1541L120.359 85.229C119.295 84.9394 118.764 84.4058 118.764 83.6346V69.1422C118.764 68.2962 119.347 67.7626 120.512 67.5479Z" fill="#99D0EB"/>
<path d="M140.025 60.5652H140.406C141.304 60.5652 141.834 61.1964 142 62.4621V76.2745C142 79.8927 140.279 82.5999 136.84 84.396C135.652 84.9524 134.412 85.229 133.12 85.229C129.616 85.229 126.909 83.4329 124.999 79.8407C124.543 78.5749 124.316 77.4133 124.316 76.3494C124.316 72.845 126.112 70.1379 129.704 68.2279C130.97 67.7723 132.131 67.5446 133.195 67.5446C135.017 67.5446 136.761 68.127 138.431 69.2919V62.1595C138.671 61.0956 139.202 60.5652 140.025 60.5652ZM127.96 76.0467V76.73C127.96 78.7409 129.125 80.2832 131.451 81.3602C131.995 81.5131 132.45 81.588 132.818 81.588H133.501C135.336 81.588 136.804 80.6021 137.904 78.627C138.17 78.1845 138.346 77.4264 138.434 76.3494C138.434 74.4133 137.474 72.871 135.551 71.7192C134.829 71.3645 134.145 71.1888 133.501 71.1888H132.818C130.807 71.1888 129.265 72.3537 128.188 74.6802C128.035 75.2235 127.96 75.6791 127.96 76.0467Z" fill="#99D0EB"/>
<path d="M137.266 89.4979C133.794 94.961 127.69 98.5858 120.736 98.5858C113.783 98.5858 107.676 94.961 104.204 89.4979" stroke="#99D0EB" stroke-width="3.2538" stroke-miterlimit="10" stroke-linecap="round"/>
</g>
<defs>
<clipPath id="clip0_2_28">
<rect width="135" height="39.6475" fill="white" transform="translate(7 60.5652)"/>
</clipPath>
</defs>
</svg>
