<svg width="240" height="213" viewBox="0 0 240 213" fill="none" xmlns="http://www.w3.org/2000/svg">
<rect width="240" height="213" rx="30" fill="white"/>
<path d="M91.257 60.0089H91.8998C94.3242 60.0089 95.8946 61.5954 96.6109 64.7595C96.6109 67.6489 94.8293 69.3063 91.257 69.7229C88.1162 69.067 86.5458 67.6223 86.5458 65.3799V64.3429C86.5458 62.1006 88.1162 60.6559 91.257 60V60.0089ZM91.4682 79.0292C94.4987 79.0292 96.216 80.8195 96.6109 84.4002V121.82C96.6109 124.338 95.3987 126.057 92.9651 126.988L91.0366 127.192C88.0336 126.403 86.5366 124.949 86.5366 122.849V83.3721C86.5366 81.0677 88.1805 79.6141 91.4682 79.0292Z" fill="#99D0EB"/>
<path d="M146.542 60.0088H147.617C150.151 60.0088 151.648 61.7282 152.117 65.176V102.8C152.117 112.656 147.259 120.03 137.552 124.922C134.2 126.438 130.701 127.191 127.055 127.191C117.164 127.191 109.524 122.299 104.133 112.514C102.847 109.066 102.204 105.902 102.204 103.004C102.204 93.4583 107.274 86.0842 117.412 80.8815C120.985 79.6407 124.263 79.0202 127.266 79.0202C132.409 79.0202 137.331 80.6067 142.042 83.7798V64.3517C142.722 61.4535 144.219 60.0088 146.542 60.0088ZM112.49 102.18V104.041C112.49 109.518 115.778 113.719 122.344 116.653C123.877 117.07 125.163 117.274 126.201 117.274H128.129C133.309 117.274 137.451 114.588 140.555 109.208C141.308 108.003 141.804 105.938 142.052 103.004C142.052 97.7303 139.342 93.5292 133.915 90.3917C131.876 89.4256 129.948 88.947 128.129 88.947H126.201C120.525 88.947 116.172 92.12 113.133 98.4571C112.701 99.9373 112.49 101.178 112.49 102.18Z" fill="#99D0EB"/>
<path d="M166.314 129.362C156.515 144.243 139.287 154.116 119.661 154.116C100.036 154.116 82.7988 144.243 73 129.362" stroke="#99D0EB" stroke-width="8" stroke-miterlimit="10" stroke-linecap="round"/>
</svg>
