<svg width="150" height="150" viewBox="0 0 150 150" fill="none" xmlns="http://www.w3.org/2000/svg">
<g clip-path="url(#clip0_2_116)">
<rect width="150" height="150" rx="30" fill="white"/>
<g clip-path="url(#clip1_2_116)">
<path d="M180 -30H-30V180H180V-30Z" fill="#4E2790"/>
<path d="M105.052 83.4529C104.479 83.422 103.519 82.9627 103.166 83.0341C102.281 83.2059 99.8454 87.0961 99.3128 87.9953C98.9848 87.9953 98.732 85.7106 98.703 85.259C98.6123 83.887 98.6123 82.133 98.9539 80.8324C96.3508 79.6553 94.0371 77.824 91.5555 76.3845C89.979 76.0796 86.3261 82.4147 85.5581 83.7558C84.1089 86.2818 81.0813 97.0782 81.0813 97.0782C81.0813 97.0782 87.8834 98.568 87.9432 98.5043C88.0879 98.3403 88.3561 94.8823 88.5067 94.1644C89.0605 91.4571 89.7609 88.4661 91.1831 86.0849C91.6366 87.5071 91.5652 89.211 91.9511 90.6235C92.4914 92.6091 94.3767 97.003 95.7236 98.5158C97.5684 100.588 101.623 100.16 104.176 100.146C105.262 96.9026 108.371 91.9222 111.86 90.9766C115.858 89.896 121.11 89.4947 124.696 87.7965C125.273 87.5245 128.522 85.8071 128.596 85.479C128.296 84.9252 127.532 84.3482 127.036 83.9391C126.017 83.0939 121.307 79.3678 120.348 79.4006C120.107 79.4102 117.371 80.9771 116.709 81.2453C113.268 82.6443 108.76 83.6632 105.054 83.449L105.052 83.4529Z" fill="white"/>
<path d="M69.6172 59.9785C69.895 59.8376 70.198 59.7913 70.5029 59.7875C69.8391 59.0426 65.0863 53.9984 64.683 54.0718C63.0331 55.4669 61.0572 56.3391 59.2259 57.4352C58.0083 58.1569 49.7069 61.7885 47.1616 63.5831C45.7395 64.5827 44.8113 64.8181 43.777 66.4101C41.3147 70.1826 40.6239 76.7801 41.691 81.0775C42.8411 85.7029 50.9245 89.5468 54.8417 86.3204C57.3136 84.2846 59.2452 77.4092 59.5076 74.2522C59.7488 71.2979 58.8535 69.3991 60.5111 66.6551C62.2381 63.7973 66.6957 61.4836 69.6172 59.9804V59.9785ZM48.028 81.1913C45.2011 79.1825 47.0285 68.7816 50.8357 67.9635C52.1942 67.6721 52.7577 69.1213 52.9989 70.2482C53.4408 72.311 52.5801 84.4293 48.028 81.1894V81.1913Z" fill="white"/>
<path d="M25.9025 82.3086C26.6106 82.573 27.3343 82.7852 28.0695 82.9454C29.5823 83.2773 31.1376 83.3777 32.6814 83.4761C34.3274 83.5861 36.6083 83.808 38.0941 82.903C38.9663 82.3704 39.331 80.1956 39.3986 79.2404C39.5124 77.7218 38.9895 75.5683 37.9031 74.4607C37.5268 74.0747 36.78 73.8933 36.5581 73.4206C39.5163 72.7529 40.6432 67.6759 39.1882 65.4086C36.8167 61.7055 29.8042 61.3196 26.0414 59.7913C26.0414 59.8955 24.9183 64.6039 24.8334 65.0497C24.488 66.85 24.2159 68.662 24.0114 70.4798C23.8107 72.3014 23.6833 74.1326 23.6351 75.9639C23.6081 76.8824 23.6023 77.8048 23.6177 78.7214C23.6274 79.4662 23.4498 80.5024 23.94 81.0987C24.4359 81.6988 25.1943 82.0385 25.9025 82.3067V82.3086ZM30.1072 66.0048C30.1072 66.0048 32.5521 66.5548 32.72 66.6088C34.0379 67.0623 34.8021 68.0947 34.0476 69.594C33.3761 70.9294 30.7479 70.4855 29.4994 70.0263C28.9262 69.8179 30.0667 66.8906 30.1072 66.0048ZM28.6657 74.3294C28.6657 74.3294 31.7648 74.4935 31.9828 74.5301C33.6829 74.808 34.8272 75.9118 34.2135 77.8974C33.6674 79.665 30.3696 79.665 28.7468 79.3601C28.0097 79.2192 28.8008 75.4158 28.6657 74.3294Z" fill="white"/>
<path d="M40.0353 59.3012C44.6569 59.1294 49.6007 57.6706 53.8576 55.6927C56.5977 54.4152 59.0966 52.4065 61.8965 51.4204C60.6056 49.9384 56.9296 47.5302 56.7984 47.4395C55.7988 46.768 55.5267 46.8895 54.4403 47.1906C51.5998 47.9817 48.688 50.3166 45.7028 51.3625C43.7306 52.0533 41.5366 52.4663 39.4738 52.7847C35.5257 53.3887 31.3576 53.8479 27.4771 52.6168L26.2826 57.1515C30.3986 59.1835 35.489 59.469 40.0373 59.3012H40.0353Z" fill="white"/>
<path d="M36.0004 50.9862C38.8139 49.7088 36.1857 48.7323 35.1321 47.4742C34.3409 46.5345 33.1831 44.1339 33.2005 42.9298C33.214 42.3934 33.6424 41.9071 33.6269 41.7392C33.6134 41.5713 32.4904 40.5718 32.9689 39.7131C29.1617 42.0306 29.1385 47.2426 28.2026 51.1772C30.3697 51.3953 34.0283 51.8854 36.0004 50.9862Z" fill="white"/>
<path d="M69.6036 80.2863C70.1439 78.8912 70.9351 76.8785 71.5854 75.5741C71.8266 75.0917 73.0674 72.9517 73.4437 72.9748C74.5667 73.0424 77.2104 74.4105 78.3875 74.8524C79.2693 72.8494 81.2183 71.6356 82.9318 70.4315C81.8647 69.4146 72.7162 61.8985 71.9308 60.8623C71.3577 60.5034 64.1234 64.2662 62.5198 66.7458C62.1783 67.2688 61.9525 67.8496 61.6611 68.3957C62.6067 68.4999 66.7419 69.5458 66.6416 70.6264C66.6107 70.9757 65.1114 74.0381 64.8277 74.7926C62.8151 80.1358 61.0378 85.3671 60.4647 91.106C62.0914 91.8701 63.2319 92.2329 66.1997 93.0183C66.7226 88.7286 68.0541 84.3174 69.6036 80.2863Z" fill="white"/>
<path d="M77.3918 96.3855C78.2061 88.333 82.8894 79.8135 89.1473 74.7327C88.3156 74.0323 85.5851 71.4388 84.6222 71.8614C83.9082 72.1701 81.0466 74.5243 80.3924 75.1746C74.3255 81.1778 73.0712 86.7623 70.9042 94.5234C70.8367 94.7781 77.3705 96.6094 77.3937 96.3855H77.3918Z" fill="white"/>
<path d="M97.059 77.5828C98.6046 78.538 100.822 79.8907 102.476 80.5313C103.134 80.7861 106.611 81.9091 106.825 81.8454C109.22 81.1315 113.104 80.651 115.572 79.4006L118.793 77.7237C117.608 77.3686 114.322 73.9203 113.423 73.8894C113.255 73.8856 113.315 74.2348 113.123 74.3718C110.142 76.508 106.393 76.9846 102.964 75.985C102.468 75.8403 101.897 75.3483 101.464 75.3483C100.82 75.3483 99.4016 76.6932 99.0736 76.6932C98.5564 76.6932 94.479 73.5402 94.8978 72.9497C94.9614 72.8551 96.7194 72.0273 96.565 71.3963C96.5052 71.1551 93.2846 68.7237 92.9797 68.029C92.8484 67.9692 89.5082 70.3099 89.2496 70.3099C88.4276 70.3234 85.0468 67.2784 85.4366 66.493C85.6218 66.1167 87.237 64.8837 87.237 64.6926C86.523 63.0293 84.9329 61.4566 84.1244 61.0977C83.1152 60.6519 80.5931 63.0331 79.2539 62.9019C78.6229 62.8382 74.8967 59.9476 74.8466 59.3938C74.7868 58.6721 77.3995 57.4255 77.9147 56.8041C77.3648 56.1133 74.9199 53.927 74.424 53.6048C72.8783 52.6013 71.0741 56.0496 68.826 54.4229C68.4073 54.1238 66.2267 51.8777 66.1939 51.5323C66.1071 50.6832 67.9615 49.4463 68.5887 48.9157C67.043 47.0612 61.2173 44.4311 58.9731 45.0312C58.7647 45.0853 57.9137 45.6545 57.8365 45.8128L66.4467 52.7383C75.9928 61.8946 85.8225 70.6418 97.0609 77.5847L97.059 77.5828Z" fill="white"/>
<path d="M67.8766 51.6597C68.0811 51.9009 69.6345 52.6824 69.9085 53.3327C70.8116 52.4412 72.0311 51.9511 73.1928 51.4108C74.1422 50.9708 75.1147 50.5926 76.1143 50.2935L84.2247 47.8389C84.4659 47.893 82.598 45.7395 82.0944 45.6893C81.5077 45.6295 75.574 47.1385 73.2931 48.2519C72.9709 48.4063 67.4578 51.1734 67.8766 51.6597Z" fill="#FFD401"/>
<path d="M79.8328 55.7255C82.5227 54.5388 85.0081 52.4759 87.9567 51.6578C88.2982 51.2178 86.1158 49.5949 85.4983 49.5814C83.1306 49.5409 79.0551 51.3027 76.7202 52.0225C78.0691 52.9777 79.7112 53.8807 79.8328 55.7255Z" fill="white"/>
<path d="M70.389 47.8467C73.6965 46.0115 77.2143 44.3385 81.0215 44.0124C81.0717 43.7403 80.9945 43.5493 80.898 43.3042C80.4889 42.3008 77.8723 38.4337 77.0811 37.5596C74.754 34.9931 73.1774 34.8561 69.9607 35.9425C66.0666 37.2508 62.2729 39.7324 59.9862 43.1807C60.3818 43.4624 62.4948 43.5223 63.0949 43.6573C65.4896 44.2112 68.8704 45.9517 70.3871 47.8467H70.389Z" fill="white"/>
<path d="M111.863 72.4654C111.192 72.4056 110.713 71.5835 110.173 71.3848C108.973 70.9352 104.639 73.7525 103.257 74.2523C106.825 76.3788 111.863 72.4673 111.863 72.4673V72.4654Z" fill="white"/>
<path d="M97.5221 73.5383C97.8983 73.7969 98.84 74.9334 99.0619 74.8466C99.5714 74.287 107.892 69.9163 108.99 69.8295C109.332 68.6215 107.423 67.7435 106.354 68.0252C105.744 68.1892 97.5259 73.1137 97.5201 73.5363L97.5221 73.5383Z" fill="#FFD401"/>
<path d="M94.9595 67.3266C94.9962 67.6759 97.4044 69.9085 97.4083 70.7942C99.8435 69.54 101.97 67.6412 104.687 66.96C104.301 66.5914 101.437 64.8335 101.233 64.8238C100.66 64.793 94.8572 66.4776 94.9576 67.3286L94.9595 67.3266Z" fill="white"/>
<path d="M87.4801 66.8442L89.624 68.635C90.6139 66.4892 99.5444 63.2859 101.343 62.6549C100.525 61.5782 99.4479 60.5593 97.9852 60.8468C97.5896 60.924 93.5045 62.6916 93.1147 62.9289C92.8562 63.0833 88.9698 65.424 87.4801 66.8462V66.8442Z" fill="#FFD401"/>
<path d="M86.521 60.0286C87.9702 60.5381 88.661 62.0741 89.2708 63.3728C91.4513 61.6418 94.01 60.5863 96.4646 59.334C96.7154 59.2066 96.9142 59.4613 96.8003 58.838C94.1509 57.2615 87.3488 58.784 86.521 60.0286Z" fill="white"/>
<path d="M77.6774 59.6697C78.0189 60.0885 79.4353 60.9877 79.8946 60.9279C82.5942 59.8241 90.8358 55.7255 92.914 55.1659C93.6917 54.9575 90.1507 52.8889 89.6568 53.1436C88.1246 53.9425 77.687 58.3923 77.6793 59.6697H77.6774Z" fill="#FFD401"/>
<path d="M30.825 91.5864L26.7572 90.6312C25.9757 94.807 30.0879 95.9475 30.825 91.5864Z" fill="white"/>
<path d="M45.643 94.6951L38.7135 93.5007C38.2041 97.6031 44.4292 98.5853 45.643 94.6951Z" fill="white"/>
<path d="M71.5353 104.693C72.1528 104.475 72.4673 103.211 72.6583 102.584L68.1178 101.148C67.9461 103.961 70.6862 104.998 71.5353 104.693Z" fill="white"/>
<path d="M83.5301 105.451C83.0303 105.418 83.2252 105.447 83.1712 105.8C83.1171 106.2 83.0978 107.601 83.2078 107.927C83.3757 108.431 84.8384 108.986 85.0159 109.027C87.1964 109.55 88.3427 106.796 90.3457 106.431C89.3557 106.345 88.36 106.267 87.3605 106.163C86.1293 106.032 84.6937 105.513 83.5301 105.449V105.451Z" fill="white"/>
<path d="M112.581 107.128L107.078 107.363C106.927 111.69 111.941 110.58 112.581 107.128Z" fill="white"/>
<path d="M122.382 106.283C122.422 106.377 126.463 110.435 128.594 104.974C127.608 105.443 122.218 105.88 122.382 106.283Z" fill="white"/>
<path d="M78.8642 99.6023C70.6264 97.7479 62.9425 93.7496 54.7259 91.4687C46.2142 89.101 37.4323 88.0339 28.9572 85.4443C27.3169 84.9445 25.7443 84.2537 24.1272 83.6999C24.3452 85.5273 27.0892 87.8159 28.7217 88.3118C35.3289 90.3206 42.7948 91.0384 49.566 92.5648C59.4035 94.7916 68.2413 99.0581 77.8665 101.557C93.1746 105.538 112.46 105.773 127.928 102.512C130.932 101.881 133.75 101.254 135.772 98.7629C131.922 99.7856 127.866 100.872 123.906 101.358C109.397 103.139 93.1109 102.817 78.8661 99.6042L78.8642 99.6023Z" fill="white"/>
<path d="M116.875 91.9376C113.44 92.7462 111.572 93.1649 109.237 96.0189C108.851 96.4917 106.601 99.8995 106.842 100.195C108.847 99.6853 111.101 100.054 113.185 99.9631C118.965 99.7181 123.999 99.2723 129.643 98.0142C130.948 97.7228 134.842 97.0146 135.396 95.878C135.741 95.1776 135.932 92.725 135.718 91.9936C135.668 91.8354 133.809 89.7359 133.505 89.4272C133.155 89.0644 130.624 86.7912 130.419 86.8279C128.48 88.2694 126.239 89.6221 123.935 90.3997C121.564 91.1947 119.374 91.3491 116.875 91.9396V91.9376Z" fill="white"/>
</g>
</g>
<defs>
<clipPath id="clip0_2_116">
<rect width="150" height="150" rx="30" fill="white"/>
</clipPath>
<clipPath id="clip1_2_116">
<rect width="210" height="210" fill="white" transform="translate(-30 -30)"/>
</clipPath>
</defs>
</svg>
