<svg width="150" height="150" viewBox="0 0 150 150" fill="none" xmlns="http://www.w3.org/2000/svg">
<g clip-path="url(#clip0_2_196)">
<rect width="150" height="150" rx="30" fill="white"/>
<g clip-path="url(#clip1_2_196)">
<path d="M0 0H149.722V150H0V0Z" fill="#003350"/>
<path d="M78.189 71.6569C78.189 72.0555 75.7404 76.2972 70.8431 84.3847C65.9459 92.4722 63.0695 96.9708 62.2154 97.8819C60.5612 99.5347 59.3084 100.758 58.457 101.554C60.4501 103.831 62.0445 104.969 63.2404 104.971C64.2487 104.911 65.2098 104.521 65.9737 103.861C67.1584 99.8736 68.7918 96.0333 70.8431 92.4139C72.9501 88.7694 75.057 85.1541 77.164 81.5653C79.0431 78.2041 80.082 76.4111 80.282 76.1833C80.4543 75.9653 80.7362 75.8666 81.007 75.9278C82.9154 78.9583 84.7084 81.7083 86.389 84.1778C87.9806 84.0472 89.5779 84.0014 91.1751 84.043C88.339 79.9819 85.7431 75.7597 83.4001 71.3958L99.5459 45.4278C99.4765 44.775 99.2251 44.1541 98.8195 43.6361C98.4668 43.1069 97.8751 42.7875 97.239 42.7819C96.157 42.7819 95.132 43.4375 94.164 44.7472C93.0154 46.7041 91.9876 48.7291 91.089 50.8125C86.7612 58.1583 83.4293 63.5958 81.0931 67.1278C78.9265 63.7666 76.7626 60.3791 74.6015 56.9625C72.0945 52.4639 70.8709 48.7625 70.9279 45.8569L70.6723 45.3444C68.5654 44.3764 67.0556 43.893 66.1445 43.893C64.1501 43.893 63.1543 44.8333 63.1556 46.7125C63.1556 48.0791 65.6612 52.3653 70.6737 59.5694C75.6848 66.7736 78.1917 70.8028 78.1917 71.6569" fill="#FA7D4A"/>
<path d="M15.7029 64.0027H21.9084C22.532 64.0027 23.0362 64.5083 23.0362 65.1305C23.0362 65.7541 22.5306 66.2583 21.9084 66.2583H15.7029C15.0792 66.2583 14.5751 65.7527 14.5751 65.1291C14.5751 64.5069 15.0806 64.0013 15.7029 64.0013V64.0027Z" fill="white"/>
<path d="M18.3612 68.7764H24.5667C25.1903 68.7764 25.6945 69.2819 25.6945 69.9041C25.6945 70.5278 25.189 71.0319 24.5667 71.0319H18.3612C17.7376 71.0319 17.2334 70.5278 17.2334 69.9041C17.2334 69.2805 17.739 68.7764 18.3612 68.7764Z" fill="white"/>
<path d="M14.2334 73.4805H20.4389C21.0625 73.4805 21.5667 73.9861 21.5667 74.6083C21.5667 75.2319 21.0611 75.7361 20.4389 75.7361H14.2334C13.6098 75.7361 13.1056 75.2305 13.1056 74.6083C13.1056 73.9847 13.6111 73.4805 14.2334 73.4805Z" fill="white"/>
<path d="M76.2944 103.919V86.2555H77.5055V89.2083C78.568 87.2278 80.6583 86.0167 82.9055 86.0792C86.2861 86.2055 88.9611 88.4764 88.9611 92.4889C88.9611 96.5014 86.1347 98.9486 82.6278 98.9486C80.4569 98.993 78.4542 97.7861 77.4819 95.8444V103.919H76.2944ZM87.7236 92.4903C87.7236 88.9833 85.4528 87.268 82.6278 87.268C79.8028 87.268 77.5805 89.4639 77.5805 92.5166C77.5805 95.5694 79.7764 97.7653 82.6278 97.7653C85.4792 97.7653 87.7236 95.9986 87.7236 92.4916V92.4903Z" fill="white"/>
<path d="M93.1514 86.2569L93.2014 88.4777C93.9834 86.7874 95.75 86.1319 97.3389 86.1319C98.2834 86.1125 99.2125 86.3666 100.015 86.8652L99.4597 87.875C98.8209 87.4875 98.0875 87.2861 97.3403 87.2944C95.0556 87.3097 93.2153 89.1722 93.2278 91.4583V98.7249H91.9917V86.2611L93.1528 86.2583L93.1514 86.2569Z" fill="white"/>
<path d="M101.176 92.4902C101.085 89.0305 103.815 86.1513 107.275 86.0596C107.353 86.0583 107.432 86.0569 107.51 86.0583C111.017 86.0583 114.146 88.2027 113.665 93.0735H102.437C102.592 95.736 104.844 97.786 107.51 97.6916C109.15 97.6916 111.068 97.036 112.001 95.7999L112.885 96.5069C111.674 98.0958 109.503 98.9041 107.51 98.9041C104.003 98.9027 101.176 96.4541 101.176 92.493V92.4902ZM112.555 91.986C112.53 88.9069 110.511 87.1916 107.508 87.1916C104.935 87.1916 102.714 88.9333 102.436 91.986H112.554H112.555Z" fill="white"/>
<path d="M125.428 88.5277C124.36 87.5888 122.961 87.1166 121.542 87.2152C119.599 87.1902 117.732 87.9222 117.781 89.5111C117.831 91.1763 120.001 91.5041 121.565 91.7819C123.786 92.1597 126.839 92.5388 126.711 95.443C126.635 98.193 123.785 98.9249 121.589 98.9249C119.393 98.9249 117.224 98.0916 116.139 96.4263L117.047 95.6194C118.082 97.1083 119.949 97.7388 121.614 97.7388C123.128 97.7388 125.424 97.3347 125.5 95.368C125.55 93.5763 123.482 93.2236 121.438 92.8944C119.013 92.4902 116.618 92.0361 116.593 89.5388C116.568 87.0916 119.015 86.0319 121.539 86.0569C123.244 85.9847 124.911 86.5819 126.182 87.7222L125.426 88.5277H125.428Z" fill="white"/>
<path d="M138.018 88.5277C136.95 87.5888 135.551 87.1166 134.132 87.2152C132.189 87.1902 130.322 87.9222 130.371 89.5111C130.421 91.1763 132.59 91.5041 134.156 91.7819C136.376 92.1597 139.429 92.5388 139.301 95.443C139.225 98.193 136.374 98.9249 134.179 98.9249C131.985 98.9249 129.814 98.0916 128.729 96.4263L129.638 95.6194C130.672 97.1083 132.539 97.7388 134.204 97.7388C135.718 97.7388 138.014 97.3347 138.09 95.368C138.14 93.5763 136.071 93.2236 134.028 92.8944C131.603 92.4902 129.208 92.0361 129.183 89.5388C129.158 87.0916 131.606 86.0319 134.129 86.0569C135.835 85.9847 137.501 86.5819 138.772 87.7222L138.018 88.5277Z" fill="white"/>
<path d="M57.1486 66.1722H60.15V78.8153H57.2L57.0459 76.9694C56.3278 78.4569 54.3528 79.175 52.9431 79.2014C49.1986 79.2264 46.4292 76.918 46.4292 72.4819C46.4292 68.0458 49.3264 65.8389 53.0195 65.8667C54.7125 65.8667 56.3278 66.6611 57.0459 67.918L57.1486 66.1736V66.1722ZM49.557 72.4805C49.432 74.4764 50.9473 76.1972 52.9445 76.3222C53.0639 76.3292 53.1834 76.3319 53.3014 76.3264C58.225 76.3264 58.225 68.6583 53.3014 68.6583C51.3153 68.575 49.6361 70.118 49.5528 72.1042C49.5473 72.2292 49.5486 72.3542 49.557 72.4792V72.4805Z" fill="white"/>
<path d="M65.6874 66.1708L65.918 67.6319C66.893 66.068 68.1999 65.8375 69.4833 65.8375C70.6819 65.818 71.843 66.2486 72.7402 67.043L71.3291 69.7611C70.7166 69.1986 69.9041 68.9028 69.0722 68.9403C67.4305 68.9403 65.918 69.8125 65.918 72.1458V78.8139H62.7888V66.1694H65.686L65.6874 66.1708Z" fill="white"/>
<path d="M44.8653 69.6847C44.9417 74.2236 42.1722 78.8139 35.8903 78.8139H28.8375V60.8625H35.8903C42.0445 60.8625 44.7889 65.2472 44.8667 69.6847H44.8653ZM32.1972 75.5569H35.8903C39.9681 75.5569 41.5834 72.5819 41.507 69.6583C41.4306 66.8625 39.7889 64.068 35.8903 64.068H32.1972V75.5569Z" fill="white"/>
</g>
</g>
<defs>
<clipPath id="clip0_2_196">
<rect width="150" height="150" rx="30" fill="white"/>
</clipPath>
<clipPath id="clip1_2_196">
<rect width="149.722" height="150" fill="white"/>
</clipPath>
</defs>
</svg>
