<svg width="150" height="150" viewBox="0 0 150 150" fill="none" xmlns="http://www.w3.org/2000/svg">
<rect width="150" height="150" rx="30" fill="white"/>
<g clip-path="url(#clip0_2_84)">
<path d="M54.3157 57.2318C43.794 55.8001 37.7143 57.3985 35.3707 58.2614L30.4236 46.4355L29.546 44.337C29.4087 44.0134 29.6294 43.6457 29.9775 43.6114C40.3913 42.5033 47.025 44.0624 49.55 44.8469L48.5498 42.2582C44.8481 41.3315 37.8075 40.2725 27.5407 41.6747L26.7905 41.7777C26.4473 41.8218 26.2414 42.1846 26.3787 42.5033L28.1389 46.71L29.0263 48.8281L33.7576 60.149L34.2332 61.262L35.3021 60.7031C35.3609 60.6687 40.3031 58.1584 51.0847 59.0998C51.3102 59.1243 51.5455 59.1439 51.7809 59.1733H51.8201C52.8988 59.2861 54.0313 59.4234 55.2228 59.6048L54.3157 57.2318Z" fill="#10709C"/>
<path d="M55.2229 59.6048L54.3158 57.2318C43.7941 55.8001 37.7144 57.3985 35.3708 58.2614L30.4237 46.4355L29.6 46.5237C29.095 46.5777 28.6096 46.6414 28.1341 46.7051C24.7118 47.1856 22.275 47.9799 20.7012 49.1174L20.206 49.4704C19.9804 49.6322 19.9314 49.946 20.0932 50.1715L31.7769 66.2581L32.8899 67.7535L33.6891 66.0522C33.7234 65.9787 36.9152 59.6784 56.0368 61.7131L55.2229 59.5999V59.6048ZM32.6938 63.7429L23.3292 50.8579C23.1379 50.5932 23.2409 50.2206 23.5449 50.0931C24.903 49.544 26.7318 49.1174 29.0215 48.8281L33.7528 60.149L34.2284 61.262L35.2973 60.7031C35.3561 60.6688 40.2983 58.1584 51.0799 59.0998C51.3054 59.1243 51.5407 59.1439 51.7761 59.1734C39.5334 58.6144 34.5667 61.7866 32.6889 63.7429H32.6938Z" fill="#10709C"/>
<path d="M112.749 47.2347L112.249 48.5879C109.327 56.5552 102.502 60.0118 98.2657 61.4336L97.3342 63.8557L96.4614 66.1209C100.796 65.9787 107.905 64.6549 112.935 58.2614L123.58 67.8957L124.325 67.0769C124.575 66.7975 124.825 66.5278 125.07 66.2581C127.708 63.3311 129.895 60.7717 129.914 60.7423C130.341 60.2422 130.243 59.4872 129.703 59.1096L112.744 47.2396L112.749 47.2347ZM123.428 64.7627L112.582 54.9519L111.862 55.9864C111.734 56.163 111.612 56.3395 111.484 56.5111C111.381 56.6483 111.273 56.7807 111.17 56.918C110.582 57.6633 109.969 58.3252 109.322 58.9184C109.199 59.0361 109.082 59.139 108.964 59.242C108.425 59.7176 107.876 60.1393 107.321 60.5217C107.14 60.6492 106.954 60.7668 106.772 60.8796C106.65 60.9629 106.522 61.0365 106.4 61.1051C106.302 61.164 106.199 61.2277 106.101 61.2816C104.007 62.478 101.845 63.1546 99.8935 63.5223C99.7807 63.537 99.6729 63.5615 99.5601 63.5762C99.1482 63.6498 98.756 63.7037 98.3687 63.7478C102.737 62.4191 110.146 59.0067 113.798 50.6716L126.418 59.5117C126.958 59.8892 127.056 60.6541 126.619 61.1542C125.766 62.1347 124.644 63.4095 123.428 64.7627Z" fill="#10709C"/>
<path d="M125.07 66.2532L123.428 64.7627L112.582 54.9519L111.862 55.9864C111.734 56.1629 111.612 56.3394 111.484 56.511C111.381 56.6483 111.273 56.7807 111.17 56.918C110.582 57.6632 109.969 58.3251 109.322 58.9184C109.199 59.0361 109.082 59.139 108.964 59.242C108.425 59.7176 107.876 60.1392 107.321 60.5217C107.14 60.6491 106.954 60.7668 106.772 60.8796C106.65 60.9629 106.522 61.0365 106.4 61.1051C106.302 61.1639 106.199 61.2277 106.101 61.2816C104.007 62.4779 101.845 63.1545 99.8935 63.5223C99.7807 63.537 99.6729 63.5615 99.5601 63.5762C99.1483 63.6497 98.756 63.7037 98.3687 63.7478C98.0157 63.7919 97.6627 63.8213 97.3342 63.8459L96.4614 66.111C100.796 65.9688 107.905 64.645 112.935 58.2516L123.58 67.8859L123.893 68.1703C124.3 68.5429 124.33 69.1754 123.947 69.5725C120.971 72.6614 112.215 78.9568 93.8089 72.9997L93.0098 75.0736C98.81 76.9662 103.728 77.6918 107.866 77.6918C121.565 77.6918 126.757 69.7196 127.046 69.2636L127.1 69.1754C127.35 68.7684 127.277 68.2438 126.923 67.9251L125.06 66.2434L125.07 66.2532Z" fill="#10709C"/>
<path d="M110.91 28.5545L98.2657 61.4287L97.3342 63.8508L96.4615 66.116L93.8139 73.0046L93.0147 75.0786L85.3219 95.0826C85.3219 95.0826 84.7728 96.9114 82.2184 97.2791C79.659 97.6468 74.5404 97.6468 71.9859 97.2791C69.4266 96.9114 68.8774 95.0826 68.8774 95.0826L56.0415 61.7131L55.2276 59.5999L54.3206 57.2269L49.5598 44.8421L48.5596 42.2533L43.2889 28.5496C42.4456 26.3579 44.3872 25.9951 44.3872 25.9951H57.9144C61.9349 25.9951 62.484 28.5496 62.484 28.5496L76.7908 70.3962C76.8938 70.6953 77.3252 70.6953 77.4233 70.3962L91.7203 28.5545C91.7203 28.5545 92.2694 26 96.2948 26H109.817C109.817 26 111.759 26.3677 110.915 28.5545H110.91Z" fill="#10709C"/>
<path d="M49.2952 109.453L49.001 111.13C48.9863 111.228 48.898 111.297 48.8 111.297H42.5095C42.4114 111.297 42.3281 111.365 42.3084 111.463L41.6907 114.915C41.6907 114.915 41.7054 114.915 41.7152 114.915H47.3487C47.4762 114.915 47.5693 115.028 47.5497 115.15L47.2751 116.763C47.2604 116.861 47.1722 116.935 47.0741 116.935H41.4308C41.3965 116.935 41.3671 116.925 41.3377 116.911L40.6905 120.504C40.666 120.627 40.764 120.745 40.8915 120.745H47.2947C47.4222 120.745 47.5154 120.862 47.4958 120.985L47.1869 122.662C47.1722 122.76 47.0839 122.828 46.9859 122.828H38.342C38.2194 122.828 38.1213 122.716 38.1409 122.588L40.4944 109.384C40.5091 109.286 40.5973 109.218 40.6954 109.218H49.0941C49.2216 109.218 49.3148 109.331 49.2952 109.458V109.453Z" fill="#10709C"/>
<path d="M61.0182 109.546L55.7573 115.935L58.9835 122.534C59.0472 122.667 58.9492 122.823 58.8021 122.823H56.8997C56.8213 122.823 56.7526 122.779 56.7134 122.706L54.311 117.661L50.2023 122.745C50.1631 122.794 50.1091 122.819 50.0454 122.819H47.942C47.7704 122.819 47.6773 122.618 47.7851 122.485L53.3696 115.753L50.3494 109.502C50.2856 109.365 50.3837 109.208 50.5308 109.208H52.3988C52.4773 109.208 52.5508 109.257 52.5851 109.326L54.8307 114.057L58.7383 109.281C58.7776 109.232 58.8364 109.208 58.8952 109.208H60.8613C61.0329 109.208 61.1261 109.409 61.0182 109.541V109.546Z" fill="#10709C"/>
<path d="M70.6719 110.292C69.8678 109.571 68.7353 109.213 67.2693 109.213H62.7831C62.685 109.213 62.6017 109.282 62.582 109.38L60.2286 122.583C60.2041 122.706 60.3022 122.823 60.4296 122.823H62.2143C62.3124 122.823 62.3957 122.755 62.4153 122.657L63.092 118.877H66.0926C67.2791 118.877 68.3087 118.651 69.1716 118.205C70.0394 117.759 70.7013 117.116 71.172 116.278C71.6378 115.44 71.8731 114.454 71.8731 113.312C71.8731 112.017 71.4711 111.007 70.6719 110.287V110.292ZM68.7402 115.959C68.1273 116.513 67.2693 116.793 66.1612 116.793H63.4646L64.4403 111.292H67.0437C67.8723 111.292 68.5195 111.478 68.9706 111.856C69.4266 112.233 69.657 112.797 69.657 113.547C69.657 114.596 69.353 115.4 68.7402 115.959Z" fill="#10709C"/>
<path d="M82.8558 116.254C83.3216 115.425 83.557 114.439 83.557 113.297C83.557 112.012 83.1549 111.012 82.3508 110.292C81.5467 109.571 80.4142 109.213 78.9482 109.213H74.4277C74.3296 109.213 74.2462 109.282 74.2266 109.38L71.8732 122.583C71.8536 122.706 71.9468 122.823 72.0742 122.823H73.8785C73.9766 122.823 74.0599 122.755 74.0795 122.657L74.7512 118.818H77.8254L79.7768 122.711C79.8111 122.779 79.8797 122.823 79.9582 122.823H81.8262C81.9733 122.823 82.0763 122.667 82.0076 122.529L79.9925 118.509C80.2965 118.416 80.5858 118.298 80.8603 118.156C81.7281 117.715 82.3901 117.077 82.8607 116.249L82.8558 116.254ZM77.845 116.798H75.1141L76.0996 111.297H78.7079C79.5512 111.297 80.1984 111.483 80.6544 111.86C81.1104 112.238 81.3408 112.802 81.3408 113.552C81.3408 114.601 81.0368 115.405 80.424 115.964C79.8111 116.518 78.9531 116.798 77.845 116.798Z" fill="#10709C"/>
<path d="M95.5006 109.453L95.2064 111.13C95.1917 111.228 95.1035 111.297 95.0054 111.297H88.7149C88.6169 111.297 88.5335 111.365 88.5139 111.463L87.8912 114.915C87.8912 114.915 87.9059 114.915 87.9157 114.915H93.5492C93.6718 114.915 93.7699 115.028 93.7502 115.15L93.4757 116.763C93.461 116.861 93.3727 116.935 93.2747 116.935H87.6314C87.597 116.935 87.5676 116.925 87.5382 116.911L86.891 120.504C86.8665 120.627 86.9646 120.745 87.092 120.745H93.4953C93.6228 120.745 93.7208 120.862 93.6963 120.985L93.3874 122.662C93.3727 122.76 93.2845 122.828 93.1864 122.828H84.5425C84.415 122.828 84.3219 122.716 84.3415 122.588L86.69 109.384C86.7096 109.286 86.793 109.218 86.891 109.218H95.2898C95.4123 109.218 95.5104 109.331 95.4908 109.458L95.5006 109.453Z" fill="#10709C"/>
<path d="M99.8494 123C99.217 123 98.6041 122.931 98.0157 122.794C97.4274 122.657 96.8881 122.466 96.3978 122.22C96.0349 122.039 95.7162 121.848 95.4417 121.642C95.275 121.519 95.221 121.294 95.3142 121.112L95.878 119.965C95.9957 119.725 96.2997 119.651 96.5154 119.808C96.7459 119.98 96.991 120.137 97.2509 120.274C97.6725 120.495 98.1236 120.661 98.5992 120.779C99.0797 120.897 99.5651 120.955 100.06 120.955C100.649 120.955 101.163 120.877 101.61 120.72C102.056 120.563 102.399 120.338 102.639 120.039C102.879 119.74 103.002 119.391 103.002 118.989C103.002 118.612 102.894 118.313 102.674 118.087C102.453 117.862 102.159 117.67 101.791 117.523C101.423 117.376 101.021 117.234 100.59 117.107C100.158 116.979 99.722 116.822 99.2807 116.641C98.8394 116.459 98.4423 116.239 98.0844 115.979C97.7265 115.719 97.4372 115.381 97.2116 114.959C96.9861 114.537 96.8733 114.018 96.8733 113.395C96.8733 112.503 97.094 111.728 97.5401 111.081C97.9863 110.434 98.5992 109.929 99.3837 109.576C100.168 109.218 101.085 109.041 102.134 109.041C102.909 109.041 103.644 109.139 104.35 109.331C104.919 109.487 105.419 109.703 105.851 109.978C106.027 110.09 106.096 110.316 106.012 110.507L105.512 111.655C105.409 111.89 105.12 111.988 104.904 111.851C104.561 111.635 104.184 111.468 103.782 111.341C103.218 111.164 102.62 111.076 101.997 111.076C101.374 111.076 100.874 111.159 100.428 111.331C99.9818 111.498 99.6435 111.738 99.4082 112.042C99.1728 112.346 99.0552 112.714 99.0552 113.14C99.0552 113.503 99.163 113.802 99.3738 114.032C99.5896 114.268 99.874 114.459 100.242 114.616C100.604 114.773 101.007 114.92 101.443 115.062C101.879 115.204 102.316 115.361 102.752 115.528C103.183 115.695 103.581 115.905 103.948 116.151C104.311 116.396 104.61 116.719 104.841 117.121C105.071 117.523 105.189 118.023 105.189 118.617C105.189 119.509 104.963 120.284 104.512 120.941C104.061 121.598 103.438 122.103 102.644 122.456C101.85 122.814 100.918 122.99 99.8592 122.99L99.8494 123Z" fill="#10709C"/>
<path d="M110.724 123C110.092 123 109.479 122.931 108.89 122.794C108.302 122.657 107.763 122.466 107.273 122.22C106.91 122.039 106.591 121.848 106.316 121.642C106.15 121.519 106.096 121.294 106.189 121.112L106.753 119.965C106.87 119.725 107.174 119.651 107.39 119.808C107.621 119.98 107.866 120.137 108.126 120.274C108.547 120.495 108.998 120.661 109.474 120.779C109.954 120.897 110.44 120.955 110.935 120.955C111.523 120.955 112.038 120.877 112.484 120.72C112.931 120.563 113.274 120.338 113.514 120.039C113.754 119.74 113.877 119.391 113.877 118.989C113.877 118.612 113.769 118.313 113.548 118.087C113.328 117.862 113.033 117.67 112.666 117.523C112.298 117.376 111.896 117.234 111.465 117.107C111.033 116.979 110.597 116.822 110.155 116.641C109.714 116.459 109.317 116.239 108.959 115.979C108.601 115.719 108.312 115.381 108.086 114.959C107.861 114.537 107.748 114.018 107.748 113.395C107.748 112.503 107.969 111.728 108.415 111.081C108.861 110.434 109.474 109.929 110.258 109.576C111.043 109.218 111.96 109.041 113.009 109.041C113.784 109.041 114.519 109.139 115.225 109.331C115.794 109.487 116.294 109.703 116.725 109.978C116.902 110.09 116.971 110.316 116.887 110.507L116.387 111.655C116.284 111.89 115.995 111.988 115.779 111.851C115.436 111.635 115.058 111.468 114.656 111.341C114.093 111.164 113.494 111.076 112.872 111.076C112.249 111.076 111.749 111.159 111.303 111.331C110.857 111.498 110.518 111.738 110.283 112.042C110.048 112.346 109.93 112.714 109.93 113.14C109.93 113.503 110.038 113.802 110.249 114.032C110.464 114.268 110.749 114.459 111.116 114.616C111.479 114.773 111.881 114.92 112.318 115.062C112.754 115.204 113.19 115.361 113.627 115.528C114.058 115.695 114.455 115.905 114.823 116.151C115.186 116.396 115.485 116.719 115.715 117.121C115.946 117.523 116.064 118.023 116.064 118.617C116.064 119.509 115.838 120.284 115.387 120.941C114.936 121.598 114.313 122.103 113.519 122.456C112.725 122.814 111.793 122.99 110.734 122.99L110.724 123Z" fill="#10709C"/>
</g>
<defs>
<clipPath id="clip0_2_84">
<rect width="110.184" height="97" fill="white" transform="translate(20 26)"/>
</clipPath>
</defs>
</svg>
