<svg width="240" height="213" viewBox="0 0 240 213" fill="none" xmlns="http://www.w3.org/2000/svg">
<rect width="240" height="213" rx="30" fill="#7429C6"/>
<path d="M93.3916 76.3334H93.4153C101.404 68.3452 112.364 63.4001 124.512 63.4001C136.661 63.4001 147.502 68.2025 155.633 76.2858L174.462 57.4565L197 34.9185L158.296 45.4029C148.12 39.8397 136.518 36.7491 124.488 36.7491C105.041 36.7491 87.3291 44.6897 74.5385 57.4803C61.7717 70.2709 53.8311 87.9353 53.8311 107.43H80.4821C80.4821 95.3053 85.4034 84.2978 93.3678 76.3334H93.3916Z" fill="#D2B5F9"/>
<path d="M111.174 120.744H166.45C164.286 127.544 160.53 133.606 155.585 138.504C147.62 146.492 136.637 151.437 124.488 151.437C112.339 151.437 101.403 146.516 93.3911 138.504L74.5381 157.357L52 179.919L90.6809 169.434C100.737 174.95 112.268 178.088 124.512 178.088C144.007 178.088 161.671 170.147 174.462 157.357C187.252 144.566 195.193 126.902 195.193 107.407V94.0695H137.849L111.198 120.721L111.174 120.744Z" fill="#D2B5F9"/>
</svg>
