<svg width="150" height="150" viewBox="0 0 150 150" fill="none" xmlns="http://www.w3.org/2000/svg">
<g clip-path="url(#clip0_2_335)">
<path d="M149.71 0.0351562H-0.290039V150.035H149.71V0.0351562Z" fill="#7429C6"/>
<path d="M53.2962 53.3127H53.3128C58.886 47.7395 66.5325 44.2894 75.0083 44.2894C83.4842 44.2894 91.0478 47.64 96.7205 53.2795L109.857 40.1427L125.581 24.4185L98.5782 31.7332C91.479 27.8519 83.3847 25.6956 74.9918 25.6956C61.4238 25.6956 49.0666 31.2356 40.1429 40.1593C31.2358 49.083 25.6958 61.407 25.6958 75.0082H44.2896C44.2896 66.5489 47.7231 58.8692 53.2796 53.3127H53.2962Z" fill="#D2B5F9"/>
<path d="M65.7032 84.297H104.268C102.758 89.0409 100.137 93.2705 96.6874 96.6874C91.1308 102.261 83.4677 105.711 74.9918 105.711C66.516 105.711 58.8861 102.277 53.2963 96.6874L40.143 109.841L24.4187 125.582L51.4054 118.267C58.4216 122.115 66.4662 124.304 75.0084 124.304C88.6096 124.304 100.934 118.764 109.857 109.841C118.781 100.917 124.321 88.593 124.321 74.9918V65.6866H84.3136L65.7198 84.2804L65.7032 84.297Z" fill="#D2B5F9"/>
</g>
<defs>
<clipPath id="clip0_2_335">
<rect width="150" height="150" rx="30" fill="white"/>
</clipPath>
</defs>
</svg>
