<svg width="172" height="172" viewBox="0 0 172 172" fill="none" xmlns="http://www.w3.org/2000/svg">
<g clip-path="url(#clip0_1_219)">
<path d="M171.667 0.0403125H-0.332581V172.04H171.667V0.0403125Z" fill="#7429C6"/>
<path d="M61.113 61.1318H61.132C67.5225 54.7413 76.2905 50.7852 86.0095 50.7852C95.7285 50.7852 104.401 54.6272 110.906 61.0938L125.97 46.0303L144 27.9998L113.036 36.3874C104.896 31.9369 95.6144 29.4643 85.9905 29.4643C70.4325 29.4643 56.263 35.8169 46.0305 46.0494C35.817 56.2819 29.4645 70.4134 29.4645 86.0094H50.7854C50.7854 76.3094 54.7224 67.5034 61.0939 61.1318H61.113Z" fill="#D2B5F9"/>
<path d="M75.3396 96.6606H119.56C117.829 102.1 114.824 106.95 110.868 110.868C104.497 117.259 95.7095 121.215 85.9905 121.215C76.2716 121.215 67.5226 117.278 61.113 110.868L46.0305 125.951L28 144L58.9448 135.613C66.99 140.025 76.2145 142.536 86.0095 142.536C101.606 142.536 115.737 136.183 125.97 125.951C136.202 115.718 142.555 101.587 142.555 85.9907V75.3207H96.6795L75.3586 96.6416L75.3396 96.6606Z" fill="#D2B5F9"/>
</g>
<defs>
<clipPath id="clip0_1_219">
<rect width="172" height="172" fill="white"/>
</clipPath>
</defs>
</svg>
