<svg width="166" height="172" viewBox="0 0 166 172" fill="none" xmlns="http://www.w3.org/2000/svg">
<rect width="166" height="172" fill="#5135A9"/>
<path d="M81.6916 34.6309L81.7894 109.915C81.7894 109.915 83.1727 120.805 92.1771 116.372C101.181 111.938 97.0414 108.19 102.943 106.366C108.845 104.542 114.085 102.222 116.577 90.706C119.07 79.1895 121.761 82.2236 121.001 78.4979C120.241 74.7722 122.397 67.6209 122.936 63.2133C123.474 58.8057 115.67 52.7734 115.67 52.7734C115.67 52.7734 122.883 35.8673 105.012 34.1252C105.012 34.1252 100.496 28.2528 93.9551 28.1125C87.4139 27.9722 81.6916 34.6309 81.6916 34.6309Z" fill="#5135A9"/>
<path d="M88.3763 47.945C88.3763 47.945 86.396 44.229 90.3534 41.4983C91.3517 40.81 93.3255 40.4446 95.2471 41.3613" stroke="white" stroke-width="4.61095" stroke-miterlimit="10" stroke-linecap="round"/>
<path d="M81.7894 91.9229C81.7894 91.9229 83.5675 89.2216 86.8397 89.587C87.7494 89.662 88.6188 89.9955 89.3453 90.548C90.0718 91.1006 90.6254 91.8493 90.9406 92.7059" stroke="white" stroke-width="4.61095" stroke-miterlimit="10" stroke-linecap="round"/>
<path d="M88.9863 79.643C88.9863 79.643 87.0093 75.9368 90.9634 73.1996C91.9617 72.5113 93.9322 72.1426 95.8571 73.0626" stroke="white" stroke-width="4.61095" stroke-miterlimit="10" stroke-linecap="round"/>
<path d="M108.757 60.4891C108.757 60.4891 108.287 52.5287 98.8912 51.5598" stroke="white" stroke-width="4.61095" stroke-miterlimit="10" stroke-linecap="round"/>
<path d="M99.0576 88.2624C101.026 90.0911 103.49 91.3005 106.14 91.7402C109.465 92.2981 114.137 91.6521 117.409 87.8024C124.86 79.0427 120.019 68.6681 109.579 66.3713" stroke="white" stroke-width="4.61095" stroke-miterlimit="10" stroke-linecap="round"/>
<path d="M98.1082 35.7793C98.1082 35.7793 103.818 32.7191 108.773 34.9212C121.229 40.4609 115.673 52.7734 115.673 52.7734C122.029 56.9657 123.321 62.2084 122.851 66.2147C122.851 66.2147 121.748 70.9845 120.342 72.4819" stroke="white" stroke-width="4.61095" stroke-miterlimit="10" stroke-linecap="round"/>
<path d="M102.666 32.781C99.5926 27.5057 92.3924 27.5611 89.2245 28.8041C87.3965 29.527 85.7636 30.6687 84.457 32.1373C83.1504 33.606 82.2066 35.3607 81.7013 37.2604C81.6883 37.4505 81.6883 37.6412 81.7013 37.8313C81.7013 40.4413 81.7209 43.6287 81.7013 46.3137C81.7013 49.2695 81.6622 56.5905 81.7242 68.6975C81.8057 83.7439 81.7861 97.779 81.7242 107.615C81.7013 110.154 81.561 110.995 84.0666 114.013C85.538 115.785 88.546 117.142 92.1771 116.378C99.0576 114.927 99.0576 107.752 99.0576 107.752" stroke="white" stroke-width="4.61095" stroke-miterlimit="10" stroke-linecap="round"/>
<path d="M102.666 78.4946C102.666 78.4946 93.9583 75.1734 93.9583 65.1707" stroke="white" stroke-width="4.61095" stroke-miterlimit="10" stroke-linecap="round"/>
<path d="M99.6155 97.2114C99.6155 97.2114 106.405 95.6519 107.54 103.912" stroke="white" stroke-width="4.61095" stroke-miterlimit="10" stroke-linecap="round"/>
<path d="M81.6915 27C81.6915 27 56.1954 27.6133 46.7832 51.9937C41.4752 65.7254 44.6887 76.7231 48.7113 84.4715C50.8678 88.6605 55.4026 93.7858 58.6064 97.2538C62.2146 101.169 67.9142 109.393 67.4998 121.07C67.4117 123.549 68.3546 124.838 71.0037 125.021L76.7 125.076L96.1051 124.887L101.72 124.831C102.171 124.82 102.621 124.878 103.054 125.004C104.897 125.578 105.83 127.171 105.938 128.919C106.105 131.594 103.71 133.558 100.989 133.487L95.1492 133.516L76.6249 133.718C76.6249 133.718 67.7054 132.554 67.34 137.633" stroke="white" stroke-width="4.61095" stroke-miterlimit="10" stroke-linecap="round"/>
<path d="M98.3137 106.317C104.643 107.296 116.949 104.744 116.583 88.6833" stroke="white" stroke-width="4.61095" stroke-miterlimit="10" stroke-linecap="round"/>
<path d="M72.5175 143.232L98.7313 142.941" stroke="white" stroke-width="5.4025" stroke-miterlimit="10" stroke-linecap="round"/>
<path d="M104.594 145.124C105.799 145.124 106.777 144.147 106.777 142.941C106.777 141.736 105.799 140.759 104.594 140.759C103.389 140.759 102.411 141.736 102.411 142.941C102.411 144.147 103.389 145.124 104.594 145.124Z" fill="white"/>
</svg>
