<svg width="150" height="150" viewBox="0 0 150 150" fill="none" xmlns="http://www.w3.org/2000/svg">
<rect width="150" height="150" rx="30" fill="#5135A9"/>
<path d="M73.8176 30.2013L73.9061 95.8564C73.9061 95.8564 75.156 105.354 83.2925 101.487C91.429 97.6204 87.688 94.3513 93.0209 92.7609C98.3539 91.1704 103.088 89.1475 105.341 79.1041C107.593 69.0606 110.025 71.7066 109.338 68.4574C108.651 65.2083 110.6 58.9717 111.086 55.1278C111.573 51.284 104.521 46.0233 104.521 46.0233C104.521 46.0233 111.039 31.2796 94.89 29.7603C94.89 29.7603 90.8099 24.639 84.8992 24.5167C78.9884 24.3943 73.8176 30.2013 73.8176 30.2013Z" fill="#5135A9"/>
<path d="M79.8581 41.8125C79.8581 41.8125 78.0687 38.5718 81.6446 36.1904C82.5467 35.5901 84.3303 35.2714 86.0666 36.0709" stroke="white" stroke-width="4.61095" stroke-miterlimit="10" stroke-linecap="round"/>
<path d="M73.906 80.1653C73.906 80.1653 75.5127 77.8095 78.4695 78.1282C79.2915 78.1936 80.0771 78.4844 80.7336 78.9663C81.3901 79.4482 81.8903 80.1011 82.1752 80.8481" stroke="white" stroke-width="4.61095" stroke-miterlimit="10" stroke-linecap="round"/>
<path d="M80.4093 69.4561C80.4093 69.4561 78.6228 66.224 82.1958 63.8369C83.0978 63.2366 84.8784 62.9151 86.6178 63.7174" stroke="white" stroke-width="4.61095" stroke-miterlimit="10" stroke-linecap="round"/>
<path d="M98.2744 52.7522C98.2744 52.7522 97.8499 45.81 89.3596 44.965" stroke="white" stroke-width="4.61095" stroke-miterlimit="10" stroke-linecap="round"/>
<path d="M89.5098 76.973C91.2889 78.5678 93.5145 79.6225 95.9099 80.006C98.9139 80.4925 103.135 79.9292 106.092 76.5719C112.826 68.9326 108.451 59.885 99.0171 57.882" stroke="white" stroke-width="4.61095" stroke-miterlimit="10" stroke-linecap="round"/>
<path d="M88.6521 31.2028C88.6521 31.2028 93.8111 28.5341 98.2891 30.4545C109.545 35.2856 104.524 46.0233 104.524 46.0233C110.267 49.6793 111.434 54.2515 111.01 57.7454C111.01 57.7454 110.013 61.905 108.743 63.211" stroke="white" stroke-width="4.61095" stroke-miterlimit="10" stroke-linecap="round"/>
<path d="M92.7703 28.5881C89.9933 23.9875 83.4871 24.0359 80.6245 25.1199C78.9727 25.7503 77.4972 26.746 76.3166 28.0268C75.1359 29.3076 74.283 30.8378 73.8265 32.4946C73.8147 32.6603 73.8147 32.8267 73.8265 32.9925C73.8265 35.2686 73.8441 38.0483 73.8265 40.3899C73.8265 42.9676 73.7911 49.3522 73.8471 59.9106C73.9208 73.0325 73.9031 85.2724 73.8471 93.8506C73.8264 96.0641 73.6997 96.7982 75.9638 99.43C77.2933 100.975 80.0114 102.158 83.2925 101.493C89.5098 100.227 89.5098 93.9701 89.5098 93.9701" stroke="white" stroke-width="4.61095" stroke-miterlimit="10" stroke-linecap="round"/>
<path d="M92.7703 68.4546C92.7703 68.4546 84.9021 65.5582 84.9021 56.835" stroke="white" stroke-width="4.61095" stroke-miterlimit="10" stroke-linecap="round"/>
<path d="M90.0139 84.7773C90.0139 84.7773 96.1487 83.4173 97.1746 90.6213" stroke="white" stroke-width="4.61095" stroke-miterlimit="10" stroke-linecap="round"/>
<path d="M73.8176 23.5465C73.8176 23.5465 50.779 24.0814 42.274 45.3433C37.4776 57.3186 40.3814 66.9097 44.0163 73.667C45.9649 77.3202 50.0626 81.7899 52.9576 84.8143C56.218 88.2285 61.3682 95.4012 60.9938 105.584C60.9142 107.746 61.7662 108.87 64.16 109.03L69.3072 109.078L86.8419 108.913L91.9154 108.865C92.323 108.855 92.7297 108.906 93.1212 109.015C94.7868 109.516 95.6299 110.905 95.7272 112.43C95.8776 114.763 93.7137 116.475 91.2551 116.413L85.9782 116.438L69.2394 116.615C69.2394 116.615 61.1795 115.599 60.8494 120.029" stroke="white" stroke-width="4.61095" stroke-miterlimit="10" stroke-linecap="round"/>
<path d="M88.8376 92.7182C94.5568 93.5718 105.677 91.3468 105.346 77.3401" stroke="white" stroke-width="4.61095" stroke-miterlimit="10" stroke-linecap="round"/>
<path d="M65.5278 124.911L89.2151 124.658" stroke="white" stroke-width="5.4025" stroke-miterlimit="10" stroke-linecap="round"/>
<path d="M94.5127 126.561C95.602 126.561 96.485 125.709 96.485 124.658C96.485 123.607 95.602 122.755 94.5127 122.755C93.4235 122.755 92.5405 123.607 92.5405 124.658C92.5405 125.709 93.4235 126.561 94.5127 126.561Z" fill="white"/>
</svg>
