<svg width="274" height="243" viewBox="0 0 274 243" fill="none" xmlns="http://www.w3.org/2000/svg">
<rect width="274" height="243" rx="30" fill="#5135A9"/>
<path d="M133.922 46.4593L134.07 156.316C134.07 156.316 136.163 172.207 149.787 165.737C163.411 159.268 157.147 153.798 166.077 151.136C175.007 148.475 182.934 145.09 186.706 128.285C190.477 111.48 194.549 115.908 193.399 110.471C192.249 105.034 195.512 94.5989 196.326 88.1673C197.141 81.7357 185.333 72.9332 185.333 72.9332C185.333 72.9332 196.247 48.2636 169.207 45.7214C169.207 45.7214 162.375 37.1522 152.478 36.9475C142.58 36.7428 133.922 46.4593 133.922 46.4593Z" fill="#5135A9"/>
<path d="M144.037 65.8876C144.037 65.8876 141.04 60.4652 147.028 56.4805C148.538 55.476 151.525 54.9428 154.432 56.2806" stroke="white" stroke-width="4.61095" stroke-miterlimit="10" stroke-linecap="round"/>
<path d="M134.07 130.061C134.07 130.061 136.76 126.119 141.711 126.652C143.088 126.762 144.403 127.248 145.502 128.055C146.602 128.861 147.439 129.954 147.916 131.204" stroke="white" stroke-width="4.61095" stroke-miterlimit="10" stroke-linecap="round"/>
<path d="M144.959 112.142C144.959 112.142 141.968 106.734 147.951 102.74C149.461 101.735 152.443 101.197 155.355 102.54" stroke="white" stroke-width="4.61095" stroke-miterlimit="10" stroke-linecap="round"/>
<path d="M174.874 84.1922C174.874 84.1922 174.163 72.5763 159.946 71.1624" stroke="white" stroke-width="4.61095" stroke-miterlimit="10" stroke-linecap="round"/>
<path d="M160.198 124.72C163.177 127.388 166.904 129.153 170.914 129.794C175.944 130.608 183.013 129.666 187.964 124.048C199.239 111.266 191.913 96.1271 176.117 92.7756" stroke="white" stroke-width="4.61095" stroke-miterlimit="10" stroke-linecap="round"/>
<path d="M158.761 48.1351C158.761 48.1351 167.4 43.6696 174.898 46.883C193.745 54.9666 185.338 72.9333 185.338 72.9333C194.954 79.0507 196.909 86.7011 196.198 92.5471C196.198 92.5471 194.53 99.5072 192.402 101.692" stroke="white" stroke-width="4.61095" stroke-miterlimit="10" stroke-linecap="round"/>
<path d="M165.657 43.7601C161.007 36.0621 150.113 36.1431 145.32 37.9569C142.554 39.0118 140.083 40.6777 138.106 42.8208C136.129 44.9639 134.701 47.5244 133.937 50.2965C133.917 50.5738 133.917 50.8522 133.937 51.1296C133.937 54.9381 133.967 59.5892 133.937 63.5073C133.937 67.8204 133.878 78.5033 133.971 96.17C134.095 118.126 134.065 138.606 133.971 152.96C133.937 156.664 133.725 157.892 137.516 162.295C139.742 164.88 144.293 166.861 149.787 165.747C160.198 163.628 160.198 153.16 160.198 153.16" stroke="white" stroke-width="4.61095" stroke-miterlimit="10" stroke-linecap="round"/>
<path d="M165.657 110.466C165.657 110.466 152.482 105.62 152.482 91.0238" stroke="white" stroke-width="4.61095" stroke-miterlimit="10" stroke-linecap="round"/>
<path d="M161.042 137.778C161.042 137.778 171.314 135.502 173.032 147.556" stroke="white" stroke-width="4.61095" stroke-miterlimit="10" stroke-linecap="round"/>
<path d="M133.922 35.3242C133.922 35.3242 95.3451 36.2192 81.104 71.7955C73.0727 91.8331 77.9349 107.881 84.0213 119.188C87.2842 125.3 94.1456 132.779 98.993 137.84C104.453 143.553 113.076 155.554 112.449 172.593C112.316 176.211 113.743 178.091 117.751 178.358L126.37 178.439L155.73 178.163L164.226 178.082C164.908 178.065 165.589 178.15 166.245 178.334C169.034 179.172 170.446 181.495 170.608 184.047C170.86 187.951 167.237 190.816 163.12 190.712L154.284 190.755L126.256 191.05C126.256 191.05 112.76 189.35 112.207 196.762" stroke="white" stroke-width="4.61095" stroke-miterlimit="10" stroke-linecap="round"/>
<path d="M159.072 151.065C168.649 152.493 187.268 148.77 186.715 125.334" stroke="white" stroke-width="4.61095" stroke-miterlimit="10" stroke-linecap="round"/>
<path d="M120.041 204.932L159.704 204.508" stroke="white" stroke-width="5.4025" stroke-miterlimit="10" stroke-linecap="round"/>
<path d="M168.575 207.693C170.399 207.693 171.877 206.267 171.877 204.508C171.877 202.749 170.399 201.323 168.575 201.323C166.751 201.323 165.272 202.749 165.272 204.508C165.272 206.267 166.751 207.693 168.575 207.693Z" fill="white"/>
</svg>
