<svg width="150" height="150" viewBox="0 0 150 150" fill="none" xmlns="http://www.w3.org/2000/svg">
<rect width="150" height="150" rx="30" fill="#121212"/>
<g opacity="0.96">
<path d="M93.2855 26.6871C91.8536 25.9597 90.1598 25.9909 88.7567 26.7702C87.246 27.6083 86.3381 29.1183 86.3381 30.8084V47.9278C86.3381 49.3858 85.1574 50.5772 83.7041 50.5772H66.3643C64.9074 50.5772 63.7267 49.3858 63.7267 47.9278V30.8084C63.7267 29.1183 62.8224 27.6083 61.3081 26.7702C59.9013 25.9909 58.2112 25.9597 56.7793 26.6871C43.4946 33.4371 35.241 46.7606 35.241 61.4522C35.241 70.9694 41.2266 85.6956 51.2458 100.844C59.0042 112.568 69.3535 124.399 74.9911 124.399C75.6801 124.399 77.7758 124.399 84.4218 117.337C88.5737 112.928 93.2388 107.078 97.5594 100.865C102.752 93.3877 114.827 74.5817 114.827 61.4522C114.827 46.7606 106.574 33.4371 93.289 26.6871H93.2855ZM102.537 36.0589C102.25 35.8996 101.959 35.7368 101.668 35.574C98.8513 33.9739 95.8979 31.5496 92.4852 28.5469C96.307 30.521 99.6838 33.07 102.537 36.0589ZM88.4696 30.8084C88.4696 29.8283 88.9864 28.9555 89.8441 28.4776C90.0342 28.3737 90.2316 28.294 90.4326 28.2352C94.1611 31.5496 97.7029 34.6216 101.101 36.5507C102.303 37.233 103.495 37.8875 104.697 38.5525C106.057 40.2634 107.259 42.0851 108.296 44.0038C105.433 41.9777 102.343 40.1387 99.3321 38.3447L97.9254 37.5066C96.0881 36.4087 94.0032 35.0545 91.9936 33.7419C90.9063 33.0319 89.7041 32.2492 88.4589 31.4595V30.8084H88.4696ZM88.4696 32.7652C89.4888 33.4129 90.472 34.0571 91.3764 34.6424C93.5079 36.0312 95.5175 37.3403 97.3441 38.4313L98.7544 39.2694C102.379 41.4271 106.111 43.654 109.376 46.1684C110.697 49.0499 111.641 52.108 112.175 55.2839C110.744 52.5133 108.253 49.5971 104.729 46.5667C99.4218 42.0054 93.1276 38.3516 88.4696 35.9688V32.7652ZM57.8021 28.4326C58.1753 28.2421 58.57 28.1486 58.9683 28.1486C59.3954 28.1486 59.826 28.2594 60.2207 28.4776C60.5078 28.6369 60.7554 28.8447 60.96 29.0802C58.4372 29.6344 55.5413 30.5348 52.4946 31.702C54.1489 30.4794 55.9253 29.3885 57.8021 28.4326ZM61.5377 30.2508C61.5772 30.4344 61.5951 30.6214 61.5951 30.8084V32.0137C59.9229 32.2007 58.0676 32.5124 56.1765 32.9176C54.2781 33.025 52.3762 33.3298 50.6394 33.8008C54.6011 32.1453 58.369 30.9158 61.5341 30.2508H61.5377ZM48.0377 36.8243C48.0377 36.8243 48.0448 36.8208 48.0448 36.8173C48.5508 36.3498 49.1788 36.0242 49.8606 35.8441C51.5329 35.4078 53.2805 35.0441 55.0174 34.7705C56.5999 34.5212 58.2112 34.5004 59.7937 34.7255C60.436 34.8155 61.0353 34.9333 61.5987 35.0718V38.2685C60.6011 36.5437 58.5987 35.5117 55.9683 35.4978H55.9145C52.1429 35.4978 49.674 37.6451 49.6274 40.9595C49.6059 42.5284 50.137 43.8722 51.1705 44.8385C52.2255 45.8359 53.7686 46.3831 55.509 46.3831C55.6705 46.3831 55.8355 46.3797 56.0078 46.3693C58.7171 46.2134 60.6406 45.2818 61.6059 43.7267V47.9278C61.6059 48.5027 61.7136 49.0534 61.9109 49.5625C60.314 49.9781 58.509 50.2067 56.7686 50.3937C52.9432 50.8058 49.9145 50.127 48.0269 48.423C46.5233 47.0689 45.7841 45.0982 45.8271 42.563C45.8738 40.0868 46.6202 38.1577 48.0448 36.8243H48.0377ZM61.1825 40.9664C61.2291 44.454 57.9097 45.164 55.9288 45.2783C54.2925 45.3684 52.875 44.9354 51.942 44.0523C51.1382 43.2973 50.7219 42.2306 50.7398 40.9664C50.7829 37.7247 53.442 36.5715 55.9145 36.5715H55.954C57.2028 36.5784 58.4982 36.8728 59.4887 37.5654C60.4755 38.2616 61.1609 39.356 61.1825 40.9664ZM41.3415 44.8142C42.6082 42.3241 44.1549 39.9725 45.9671 37.8183C45.1633 39.1551 44.7398 40.7898 44.7039 42.6947C44.6501 45.5519 45.5078 47.7962 47.2554 49.3685C48.9886 50.927 51.5544 51.7513 54.68 51.7513C55.387 51.7513 56.1334 51.7063 56.887 51.6232C58.7817 51.4188 60.7518 51.1591 62.5174 50.6707C63.3894 51.8206 64.7889 52.5652 66.3643 52.5652H71.1012C67.5629 54.8441 62.2195 55.4017 58.1107 55.4363C55.7817 55.4571 47.8941 55.2181 43.7888 51.1522C42.1274 49.5105 41.2984 47.4152 41.3379 44.9216C41.3379 44.887 41.3379 44.8523 41.3415 44.8142ZM40.3941 46.8264C40.7494 48.6897 41.6178 50.3106 42.9886 51.6682C47.3092 55.942 55.491 56.2745 57.8989 56.2745H58.1214C62.7973 56.2329 68.9121 55.5333 72.6478 52.5652H81.7914C81.4792 53.3687 81.0306 54.1029 80.4708 54.7644C76.2794 59.672 66.0987 60.0322 60.6262 60.2296L59.6896 60.2608C53.1621 60.5101 44.625 58.9135 40.2829 54.7679C39.558 54.0718 38.9479 53.3098 38.4706 52.4959C38.9623 50.5461 39.6046 48.6551 40.3977 46.8264H40.3941ZM38.1154 54.0718C38.5173 54.6224 38.9766 55.1489 39.4934 55.6372C44.0042 59.9317 52.1788 61.4695 58.3296 61.4695C58.7889 61.4695 59.2626 61.4591 59.7291 61.4418L60.6693 61.4071C66.3141 61.2063 76.8177 60.8357 81.3285 55.5506C82.0856 54.6675 82.6526 53.6665 83.0151 52.5652H83.7041C86.3345 52.5652 88.4696 50.4837 88.4696 47.9278V46.4455C89.2232 47.7789 89.679 49.1746 89.8369 50.6153C90.228 54.0614 89.3524 56.9671 87.246 59.2599C81.9995 64.9571 70.3512 66.0203 61.4982 65.9026C55.8284 65.8333 43.8642 64.2886 37.4551 59.0278C37.5627 57.3516 37.7816 55.6926 38.1154 54.0718ZM37.3726 61.4522C37.3726 61.1024 37.3761 60.7595 37.3869 60.4132C39.1417 61.7223 41.3128 62.8687 43.8642 63.8245C46.8606 64.9467 50.1693 65.7259 53.2769 66.2281C56.3846 66.7303 59.2913 66.9589 61.4875 66.9866C61.875 66.9901 62.2662 66.9935 62.6609 66.9935C71.3165 66.9935 82.7531 65.7779 88.0893 59.9802C90.4182 57.452 91.3799 54.2588 90.9565 50.4976C90.7197 48.3676 89.8871 46.3381 88.4732 44.4333V42.2202C93.8381 45.7355 96.9422 49.7149 97.4733 53.7912C97.9757 57.639 97.0068 60.9465 94.6132 63.6237C87.3751 71.7141 68.8547 72.244 63.3428 72.2128C57.5688 72.1989 45.8092 70.4465 37.7493 65.816C37.5017 64.2575 37.3726 62.7994 37.3726 61.4522ZM38.0185 67.3191C39.357 68.0395 40.8283 68.7148 42.4037 69.3278C50.5855 72.5037 59.4169 73.3626 63.3463 73.373H63.4432C70.6598 73.373 88.2436 72.5002 95.4996 64.3891C98.1192 61.4591 99.1742 57.8572 98.6288 53.6839C97.8895 48.0005 92.9051 43.6713 88.4732 40.9006V40.3084C98.2304 45.5727 104.202 51.6093 104.93 56.9879C105.504 61.2236 104.349 64.9986 101.482 68.2057C93.3393 77.3385 74.1514 79.6728 65.1406 79.6347C60.3392 79.614 50.4492 77.4147 41.564 73.3765C40.7996 73.0301 40.0424 72.663 39.296 72.2855C38.7649 70.5538 38.3379 68.888 38.0185 67.3191ZM82.8141 116.028C78.0701 121.063 75.6622 122.407 74.9875 122.407C72.2459 122.407 65.905 117.184 58.4157 107.359C61.509 110.001 64.9468 111.854 68.9337 111.958C69.2243 111.969 69.5114 111.972 69.8021 111.972C76.0067 111.972 83.0546 110.323 90.3141 107.196C87.7519 110.486 85.1933 113.499 82.8141 116.028ZM95.7651 99.781C94.4194 101.717 93.0378 103.615 91.6563 105.444C83.9912 108.994 76.344 110.919 69.8452 110.919C69.5509 110.919 69.2602 110.912 68.9696 110.905C63.0844 110.756 58.4157 106.455 54.1095 101.36C53.7614 100.851 53.4097 100.332 53.0616 99.8018C50.3343 95.6804 47.9121 91.6006 45.8415 87.6628C46.5413 88.2238 47.2267 88.778 47.8762 89.3044C54.1812 94.4232 60.7016 99.7222 67.9145 99.7222H68.0653C78.5402 99.6148 92.0366 95.5246 102.429 89.3945C100.463 92.747 98.2304 96.2242 95.7651 99.781ZM103.563 87.4238C93.2316 93.973 78.917 98.5273 68.0545 98.6381H67.9397C61.1107 98.6381 54.7554 93.4743 48.5939 88.4697C47.2948 87.4169 45.9671 86.3398 44.6393 85.3216C43.8606 83.7665 43.1429 82.2392 42.4862 80.7465C52.0353 85.8722 61.7171 89.3771 66.4827 89.3771C66.576 89.3771 66.6657 89.3771 66.759 89.3737C73.3763 89.1728 81.5151 87.7528 88.5342 85.5675C94.9362 83.5726 103.681 79.9222 108.978 73.8475C109.692 73.0301 110.324 72.1885 110.873 71.3262C109.341 76.116 106.872 81.5604 103.559 87.4238H103.563ZM108.074 73.3003C102.953 79.1707 94.423 82.7241 88.1646 84.6739C81.2531 86.8247 73.2363 88.2273 66.7267 88.4213C62.1083 88.5529 51.7984 84.7259 41.8367 79.2261C41.0544 77.3697 40.3726 75.5722 39.7912 73.8371C48.7769 78.1905 59.5281 80.7846 65.1334 80.8088H65.3272C74.4995 80.8088 94.0426 78.336 102.382 68.9815C105.465 65.5251 106.721 61.4591 106.1 56.8944C105.311 51.0621 98.9015 44.6376 88.4661 39.1794V37.3403C92.9553 39.6573 98.9374 43.1587 103.969 47.4879C109.086 51.8899 111.91 56.0286 112.376 59.7897C112.986 64.7735 111.54 69.3209 108.07 73.3003H108.074Z" fill="#EA5C25"/>
</g>
</svg>
