<svg width="166" height="172" viewBox="0 0 166 172" fill="none" xmlns="http://www.w3.org/2000/svg">
<rect width="166" height="172" fill="#121212"/>
<g opacity="0.96">
<path d="M103.236 30.6011C101.651 29.7671 99.7769 29.8029 98.2241 30.6964C96.5522 31.6575 95.5474 33.389 95.5474 35.327V54.9571C95.5474 56.629 94.2409 57.9952 92.6325 57.9952H73.4431C71.8308 57.9952 70.5242 56.629 70.5242 54.9571V35.327C70.5242 33.389 69.5235 31.6575 67.8476 30.6964C66.2908 29.8029 64.4203 29.7671 62.8358 30.6011C48.134 38.3412 39 53.6188 39 70.4651C39 81.3782 45.6241 98.2642 56.712 115.635C65.298 129.078 76.7512 142.644 82.9902 142.644C83.7527 142.644 86.0719 142.644 93.4268 134.546C98.0216 129.491 103.184 122.783 107.966 115.659C113.712 107.085 127.076 85.5203 127.076 70.4651C127.076 53.6188 117.942 38.3412 103.24 30.6011H103.236ZM113.474 41.3475C113.156 41.1648 112.835 40.9781 112.513 40.7915C109.395 38.9567 106.127 36.1768 102.35 32.7337C106.58 34.9973 110.317 37.9202 113.474 41.3475ZM97.9064 35.327C97.9064 34.2031 98.4783 33.2023 99.4274 32.6543C99.6379 32.5351 99.8563 32.4438 100.079 32.3763C104.205 36.1768 108.125 39.6994 111.885 41.9114C113.216 42.6937 114.534 43.4443 115.865 44.2068C117.37 46.1686 118.7 48.2575 119.848 50.4576C116.679 48.1344 113.259 46.0257 109.928 43.9685L108.371 43.0075C106.337 41.7486 104.03 40.1958 101.806 38.6906C100.603 37.8765 99.2725 36.979 97.8945 36.0736V35.327H97.9064ZM97.9064 37.5707C99.0342 38.3134 100.122 39.052 101.123 39.7232C103.482 41.3157 105.706 42.8168 107.727 44.0678L109.288 45.0289C113.299 47.503 117.429 50.0565 121.043 52.9397C122.505 56.2438 123.549 59.7505 124.141 63.3922C122.556 60.2151 119.8 56.8713 115.9 53.3964C110.027 48.1662 103.061 43.9765 97.9064 41.2442V37.5707ZM63.9676 32.6026C64.3806 32.3842 64.8175 32.277 65.2583 32.277C65.7309 32.277 66.2074 32.4041 66.6443 32.6543C66.962 32.8369 67.236 33.0752 67.4624 33.3453C64.6705 33.9807 61.4657 35.0132 58.094 36.3515C59.9248 34.9497 61.8906 33.6987 63.9676 32.6026ZM68.1017 34.6876C68.1454 34.898 68.1653 35.1125 68.1653 35.327V36.709C66.3146 36.9234 64.2615 37.2808 62.1686 37.7455C60.0678 37.8686 57.963 38.2181 56.0409 38.7582C60.4252 36.8599 64.5951 35.4501 68.0978 34.6876H68.1017ZM53.1617 42.2251C53.1617 42.2251 53.1696 42.2211 53.1696 42.2172C53.7296 41.681 54.4246 41.3077 55.1791 41.1012C57.0297 40.6008 58.9638 40.1839 60.8859 39.8701C62.6372 39.5842 64.4203 39.5604 66.1717 39.8185C66.8826 39.9218 67.5458 40.0568 68.1693 40.2156V43.8811C67.0652 41.9034 64.8492 40.72 61.9383 40.7041H61.8787C57.7049 40.7041 54.9726 43.1663 54.921 46.9669C54.8971 48.7659 55.4849 50.3067 56.6286 51.4147C57.7962 52.5585 59.5039 53.1859 61.4299 53.1859C61.6087 53.1859 61.7913 53.1819 61.982 53.17C64.9803 52.9913 67.1089 51.923 68.1772 50.1399V54.9571C68.1772 55.6164 68.2963 56.2478 68.5148 56.8316C66.7475 57.3081 64.75 57.5702 62.8239 57.7847C58.5905 58.2573 55.2387 57.4789 53.1498 55.525C51.4858 53.9722 50.6677 51.7126 50.7154 48.8056C50.767 45.9661 51.593 43.7541 53.1696 42.2251H53.1617ZM67.7086 46.9748C67.7602 50.9739 64.0867 51.788 61.8946 51.9191C60.0837 52.0223 58.515 51.5259 57.4825 50.5132C56.5929 49.6475 56.1322 48.4243 56.1521 46.9748C56.1997 43.2577 59.1425 41.9352 61.8787 41.9352H61.9224C63.3044 41.9431 64.738 42.2807 65.8341 43.075C66.9262 43.8732 67.6848 45.1281 67.7086 46.9748ZM45.7512 51.3869C47.1531 48.5315 48.8647 45.835 50.8702 43.3649C49.9807 44.8978 49.5121 46.7723 49.4723 48.9565C49.4128 52.2328 50.3619 54.8062 52.2959 56.6092C54.2141 58.3963 57.0536 59.3414 60.5126 59.3414C61.2949 59.3414 62.121 59.2898 62.9549 59.1945C65.0518 58.9602 67.232 58.6624 69.1859 58.1024C70.1509 59.4209 71.6997 60.2747 73.4431 60.2747H78.6853C74.7696 62.8878 68.8563 63.5272 64.3091 63.5669C61.7318 63.5907 53.0028 63.3167 48.4597 58.6544C46.6209 56.772 45.7036 54.3694 45.7473 51.51C45.7473 51.4703 45.7473 51.4306 45.7512 51.3869ZM44.7028 53.6942C45.096 55.8308 46.057 57.6894 47.5741 59.2461C52.3555 64.1467 61.4101 64.528 64.0748 64.528H64.3211C69.4957 64.4803 76.2628 63.6781 80.3969 60.2747H90.5158C90.1703 61.196 89.6739 62.038 89.0544 62.7965C84.4159 68.4238 73.1493 68.8368 67.093 69.0632L66.0565 69.0989C58.8327 69.3849 49.385 67.5541 44.5797 62.8005C43.7775 62.0022 43.1024 61.1285 42.5742 60.1953C43.1182 57.9594 43.8291 55.7911 44.7068 53.6942H44.7028ZM42.181 62.0022C42.6258 62.6337 43.1341 63.2373 43.706 63.7973C48.6979 68.7217 57.7446 70.4849 64.5514 70.4849C65.0597 70.4849 65.5839 70.473 66.1002 70.4532L67.1407 70.4135C73.3875 70.1831 85.0116 69.7582 90.0035 63.698C90.8414 62.6853 91.4689 61.5376 91.87 60.2747H92.6325C95.5435 60.2747 97.9064 57.8879 97.9064 54.9571V53.2574C98.7404 54.7864 99.2447 56.3868 99.4195 58.0389C99.8523 61.9903 98.8833 65.3222 96.5522 67.9512C90.7461 74.484 77.8553 75.7032 68.0581 75.5682C61.7834 75.4888 48.5431 73.7176 41.4503 67.6852C41.5694 65.7631 41.8117 63.8608 42.181 62.0022ZM41.359 70.4651C41.359 70.064 41.3629 69.6708 41.3748 69.2737C43.3168 70.7748 45.7195 72.0893 48.5431 73.1854C51.8591 74.4721 55.5206 75.3657 58.9598 75.9415C62.3989 76.5173 65.6157 76.7795 68.0461 76.8112C68.475 76.8152 68.9079 76.8192 69.3448 76.8192C78.9235 76.8192 91.5801 75.4252 97.4854 68.7773C100.063 65.8782 101.127 62.2167 100.659 57.9038C100.396 55.4615 99.4751 53.1343 97.9104 50.9501V48.4124C103.847 52.4433 107.283 57.0063 107.87 61.6805C108.426 66.0927 107.354 69.8853 104.705 72.9551C96.6952 82.2321 76.1992 82.8397 70.0993 82.8039C63.7095 82.788 50.6955 80.7786 41.7759 75.4689C41.5019 73.6818 41.359 72.0099 41.359 70.4651ZM42.0738 77.1925C43.5551 78.0185 45.1833 78.7929 46.9267 79.4958C55.9813 83.1375 65.7547 84.1224 70.1033 84.1343H70.2105C78.1968 84.1343 97.6562 83.1335 105.686 73.8327C108.585 70.473 109.753 66.3429 109.149 61.5574C108.331 55.0405 102.815 50.0764 97.9104 46.8993V46.2202C108.708 52.2566 115.317 59.1786 116.123 65.3461C116.758 70.203 115.479 74.5317 112.306 78.2091C103.295 88.6815 82.0609 91.3581 72.0889 91.3144C66.7753 91.2906 55.8304 88.7688 45.9974 84.1383C45.1516 83.7412 44.3136 83.3202 43.4876 82.8873C42.8998 80.9017 42.4272 78.9915 42.0738 77.1925ZM91.6476 133.045C86.3976 138.819 83.7328 140.36 82.9862 140.36C79.9521 140.36 72.9348 134.371 64.6467 123.105C68.07 126.135 71.8745 128.26 76.2866 128.379C76.6083 128.391 76.926 128.395 77.2477 128.395C84.1141 128.395 91.9137 126.504 99.9477 122.918C97.1121 126.691 94.2806 130.146 91.6476 133.045ZM105.98 114.416C104.491 116.635 102.962 118.812 101.433 120.909C92.9502 124.979 84.4874 127.187 77.2953 127.187C76.9697 127.187 76.648 127.179 76.3263 127.171C69.8134 127.001 64.6467 122.068 59.8811 116.226C59.4959 115.643 59.1067 115.047 58.7215 114.439C55.7033 109.714 53.0227 105.035 50.7312 100.52C51.5056 101.163 52.2642 101.799 52.983 102.402C59.9606 108.272 67.1764 114.348 75.1588 114.348H75.3255C86.9178 114.225 101.854 109.535 113.355 102.506C111.179 106.35 108.708 110.337 105.98 114.416ZM114.61 100.246C103.176 107.756 87.3348 112.978 75.3136 113.105H75.1866C67.6292 113.105 60.596 107.184 53.7772 101.445C52.3396 100.238 50.8702 99.0029 49.4009 97.8353C48.5391 96.0522 47.7448 94.3009 47.0181 92.5892C57.5857 98.4668 68.3003 102.486 73.5742 102.486C73.6775 102.486 73.7767 102.486 73.88 102.482C81.2031 102.251 90.21 100.623 97.9779 98.1173C105.063 95.8298 114.741 91.6441 120.602 84.6784C121.393 83.7412 122.092 82.7761 122.699 81.7873C121.004 87.2796 118.271 93.5225 114.606 100.246H114.61ZM119.602 84.0509C113.935 90.7823 104.495 94.8568 97.5688 97.0927C89.9201 99.5589 81.0482 101.167 73.8442 101.39C68.7332 101.541 57.3236 97.1523 46.2993 90.8458C45.4335 88.7172 44.679 86.6561 44.0356 84.6665C53.9798 89.6584 65.8778 92.6329 72.081 92.6607H72.2954C82.4461 92.6607 104.074 89.8252 113.303 79.0987C116.715 75.1353 118.104 70.473 117.417 65.2388C116.544 58.5512 109.451 51.1844 97.9024 44.9256V42.8168C102.871 45.4736 109.491 49.4886 115.058 54.4528C120.722 59.5003 123.847 64.246 124.363 68.5588C125.038 74.2736 123.438 79.4879 119.598 84.0509H119.602Z" fill="#EA5C25"/>
</g>
</svg>
