<svg width="166" height="172" viewBox="0 0 166 172" fill="none" xmlns="http://www.w3.org/2000/svg">
<rect width="166" height="172" fill="#AAC6FC"/>
<path d="M30.9146 117.997L30.7606 94.6839C30.7543 93.766 30.0206 93.0253 29.1172 93.0253H28.8015C27.5493 93.0253 26.4856 92.0914 26.3034 90.8319L25.0119 81.9212C24.9255 81.3273 25.3167 80.7686 25.8981 80.6585L29.2115 80.0247C29.8258 79.9066 30.4134 80.3312 30.5045 80.9602L30.5941 81.5716C30.6805 82.1606 31.2052 82.5773 31.7881 82.5214L32.8062 82.424C33.3718 82.3698 33.8039 81.8877 33.8039 81.3098V79.0079C33.8039 78.4204 34.2516 77.9319 34.8282 77.892L40.8016 77.4626C41.4394 77.4163 41.9815 77.9303 41.9815 78.5785V79.5554C41.9815 80.2259 42.5581 80.7463 43.2148 80.6665L44.1087 80.5579C44.6618 80.4909 45.0797 80.0136 45.0797 79.4469V77.8633C45.0797 77.2806 45.5196 76.7953 46.0915 76.7475L50.9965 76.3372C51.6045 76.2861 52.1387 76.7475 52.1858 77.3668L52.8284 85.8641C52.9164 87.0183 52.4592 88.1453 51.5966 88.902L50.5047 89.8598C49.6186 90.6372 49.273 91.8759 49.628 93.0093L56.8489 116.147L63.8921 88.1229C63.8921 88.1229 64.4876 84.9303 66.4703 84.0076L67.8325 86.7341C67.8325 86.7341 68.2048 88.455 71.7147 89.0839C75.2245 89.7129 88.934 92.2303 88.934 92.2303C88.934 92.2303 91.8248 93.1961 91.6599 96.5931C91.4949 99.9917 91.454 102.006 90.7926 102.592C90.1312 103.18 89.7195 103.432 89.099 103.389C88.4784 103.346 88.2239 103.301 88.1547 103.564C88.0856 103.828 88.4831 104.056 88.8114 104.161C89.1398 104.267 89.9364 104.635 89.6583 105.585C89.3818 106.534 88.967 106.798 87.2545 106.851C85.542 106.904 84.227 106.412 83.2073 105.287C82.1877 104.161 81.2356 102.774 79.7996 102.879C78.3636 102.985 77.6377 103.882 77.1711 104.778C76.7045 105.673 76.098 106.763 76.098 106.763C76.098 106.763 75.666 108.152 73.6943 107.483C71.7225 106.816 69.9409 104.848 69.9409 104.848C69.9409 104.848 69.7508 104.497 69.4743 104.707C69.1977 104.918 69.6471 105.462 70.1828 106.026C70.7186 106.589 73.1931 108.679 75.2685 109.032C75.2685 109.032 76.4971 108.997 77.2575 110.579C78.0179 112.161 80.5961 117.907 80.5961 117.907L30.9162 118L30.9146 117.997Z" fill="#10529A"/>
<path d="M91.6667 117.998C91.6667 117.998 94.0482 97.9154 94.427 90.313C94.8059 82.7106 94.86 64.783 94.6977 63.5919C94.5353 62.4007 94.2105 61.323 94.2105 61.323H102.06V59.281H93.8317C93.8317 59.281 92.8033 59.0541 92.8033 57.9763C92.8033 56.8986 93.994 57.0121 93.994 57.0121L100.928 56.4205C101.058 56.4092 101.105 56.2358 101.001 56.1547L97.6606 53.5747C97.3637 53.3462 97.189 52.9831 97.189 52.5974V50.7839C97.189 49.8407 98.0844 49.186 98.9287 49.5101L102.031 50.7013C102.297 50.8034 102.564 50.5522 102.495 50.2637L101.519 46.1765C101.519 46.1765 100.545 43 103.522 43C106.499 43 106.823 44.3613 106.336 46.5735C106.007 48.0677 105.605 49.5604 105.377 50.3739C105.3 50.6494 105.54 50.9071 105.806 50.8358L109.127 49.9412C109.987 49.7095 110.81 50.4339 110.739 51.3625L110.607 53.0771C110.576 53.4807 110.355 53.8421 110.018 54.0398L106.857 55.8954C106.74 55.9635 106.772 56.1499 106.905 56.1693L113.753 57.2406C113.753 57.2406 114.944 57.4107 114.998 58.4317C115.052 59.4527 114.132 59.2826 113.428 59.3393C112.724 59.396 105.362 59.3393 105.362 59.3393V61.3246H114.078C114.078 61.3246 112.941 65.125 112.833 66.3178C112.724 67.5089 111.534 83.6781 111.317 89.4638C111.101 95.2511 111.425 114.54 112.237 117.66L91.6667 118V117.998Z" fill="#10529A"/>
<path d="M81.6667 118L85.6706 127.098C85.9139 127.65 86.4233 128 86.9841 128H89.3375C90.0796 128 90.7023 127.392 90.7855 126.585L91.6667 118.078L81.6667 118Z" fill="#10529A"/>
<path d="M118.333 117.879C118.333 117.879 120.621 106.061 121.079 102.444C121.079 102.444 118.206 100.295 118.614 98.3658C119.02 96.4347 119.3 96.5363 120.723 96.4855C122.146 96.4347 125.526 96.4855 125.526 96.4855C125.526 96.4855 127.012 96.4888 128.086 95.2117C128.086 95.2117 122.955 92.0298 122.857 88.1676C122.738 83.4496 123.562 81.0513 125.799 78.7677C128.035 76.4841 129.289 75.8202 130.407 75.2218L132.058 71.3333L134.879 71.6317L135.083 75.6021C135.083 75.6021 140.47 79.7627 140.192 85.502C139.913 91.2413 137.345 94.3954 133.05 95.374C133.05 95.374 134.194 96.815 135.387 97.197C136.581 97.5789 139.81 98.0937 140.369 98.3658C140.929 98.6379 141.639 99.0461 141.665 100.243C141.691 101.44 141.31 101.82 140.369 102.608C139.429 103.397 137.828 103.777 137.828 103.777C137.828 103.777 136.786 114.648 137.955 117.861L118.335 118" fill="#10529A"/>
<path d="M118.333 118.145L114.994 127.758C114.866 128.124 114.357 128.059 114.319 127.67L113.333 118L118.333 118.143V118.145Z" fill="#10529A"/>
<path d="M134.167 73C135.547 73 136.667 71.8807 136.667 70.5C136.667 69.1193 135.547 68 134.167 68C132.786 68 131.667 69.1193 131.667 70.5C131.667 71.8807 132.786 73 134.167 73Z" fill="#10529A"/>
</svg>
