<svg width="150" height="155" viewBox="0 0 150 155" fill="none" xmlns="http://www.w3.org/2000/svg">
<rect width="150" height="155" rx="30" fill="#AAC6FC"/>
<path d="M27.9348 106.334L27.7957 85.3255C27.79 84.4984 27.1271 83.8309 26.3107 83.8309H26.0254C24.8939 83.8309 23.9328 82.9893 23.7681 81.8543L22.6011 73.8243C22.523 73.2891 22.8765 72.7856 23.4018 72.6864L26.3959 72.1153C26.951 72.0088 27.482 72.3915 27.5643 72.9582L27.6452 73.5092C27.7233 74.04 28.1975 74.4155 28.7242 74.3652L29.6441 74.2774C30.1552 74.2285 30.5456 73.7941 30.5456 73.2733V71.1989C30.5456 70.6695 30.9502 70.2293 31.4713 70.1933L36.8689 69.8064C37.4452 69.7646 37.935 70.2279 37.935 70.8119V71.6923C37.935 72.2965 38.4561 72.7655 39.0495 72.6936L39.8573 72.5957C40.357 72.5353 40.7346 72.1052 40.7346 71.5945V70.1674C40.7346 69.6424 41.1321 69.205 41.6489 69.1619L46.0811 68.7922C46.6305 68.7461 47.1132 69.1619 47.1558 69.72L47.7365 77.3775C47.816 78.4176 47.4028 79.4332 46.6234 80.1151L45.6368 80.9782C44.8361 81.6788 44.5237 82.7951 44.8446 83.8165L51.3694 104.667L57.7338 79.4131C57.7338 79.4131 58.2719 76.5359 60.0635 75.7045L61.2944 78.1615C61.2944 78.1615 61.6308 79.7123 64.8024 80.2791C67.9739 80.8459 80.362 83.1145 80.362 83.1145C80.362 83.1145 82.9742 83.9848 82.8252 87.0461C82.6761 90.1088 82.6392 91.9242 82.0415 92.4522C81.4438 92.9816 81.0718 93.2089 80.5111 93.17C79.9503 93.1312 79.7203 93.0909 79.6579 93.3283C79.5954 93.5656 79.9546 93.7713 80.2513 93.8663C80.548 93.9612 81.2678 94.2935 81.0165 95.1495C80.7666 96.004 80.3918 96.2428 78.8444 96.2902C77.2969 96.3377 76.1087 95.8946 75.1873 94.8805C74.2659 93.8663 73.4056 92.6162 72.108 92.7111C70.8104 92.8061 70.1546 93.6145 69.7329 94.4216C69.3113 95.2286 68.7633 96.2111 68.7633 96.2111C68.7633 96.2111 68.3729 97.4627 66.5912 96.8599C64.8095 96.2586 63.1996 94.4849 63.1996 94.4849C63.1996 94.4849 63.0278 94.1684 62.7779 94.3583C62.5281 94.5482 62.9341 95.0387 63.4182 95.5465C63.9023 96.0543 66.1383 97.9374 68.0137 98.2553C68.0137 98.2553 69.1239 98.2237 69.811 99.6493C70.4981 101.075 72.8278 106.254 72.8278 106.254L27.9363 106.337L27.9348 106.334Z" fill="#10529A"/>
<path d="M82.8311 106.336C82.8311 106.336 84.983 88.2377 85.3254 81.3867C85.6677 74.5357 85.7166 58.3801 85.5699 57.3066C85.4232 56.2332 85.1297 55.262 85.1297 55.262H92.2228V53.4218H84.7874C84.7874 53.4218 83.8581 53.2173 83.8581 52.2461C83.8581 51.2749 84.9341 51.3771 84.9341 51.3771L91.2 50.8441C91.3173 50.8339 91.3593 50.6776 91.2656 50.6046L88.2473 48.2795C87.979 48.0736 87.8211 47.7464 87.8211 47.3989V45.7646C87.8211 44.9146 88.6302 44.3246 89.3932 44.6167L92.1963 45.6901C92.4366 45.7821 92.6784 45.5557 92.6155 45.2958L91.7338 41.6125C91.7338 41.6125 90.8534 38.75 93.5434 38.75C96.2333 38.75 96.5268 39.9768 96.0866 41.9703C95.789 43.3169 95.4256 44.6619 95.2202 45.3951C95.1504 45.6434 95.367 45.8756 95.6073 45.8113L98.6089 45.0052C99.3858 44.7963 100.129 45.4491 100.065 46.286L99.9462 47.8311C99.9182 48.1948 99.7184 48.5205 99.4138 48.6987L96.5575 50.3709C96.4513 50.4322 96.4807 50.6002 96.6008 50.6177L102.788 51.5831C102.788 51.5831 103.864 51.7364 103.913 52.6565C103.962 53.5766 103.131 53.4233 102.495 53.4744C101.859 53.5255 95.2063 53.4744 95.2063 53.4744V55.2634H103.082C103.082 55.2634 102.055 58.6882 101.957 59.7631C101.859 60.8366 100.783 75.4076 100.588 80.6214C100.392 85.8367 100.685 103.219 101.419 106.031L82.8311 106.337V106.336Z" fill="#10529A"/>
<path d="M73.7952 106.337L77.4132 114.536C77.6331 115.033 78.0933 115.349 78.6001 115.349H80.7266C81.3972 115.349 81.9599 114.801 82.035 114.074L82.8313 106.407L73.7952 106.337Z" fill="#10529A"/>
<path d="M106.927 106.228C106.927 106.228 108.994 95.5783 109.408 92.3194C109.408 92.3194 106.813 90.3826 107.181 88.6439C107.548 86.9036 107.801 86.9952 109.087 86.9494C110.373 86.9036 113.427 86.9494 113.427 86.9494C113.427 86.9494 114.77 86.9524 115.74 85.8015C115.74 85.8015 111.104 82.9341 111.015 79.4536C110.907 75.2019 111.652 73.0406 113.673 70.9828C115.694 68.9249 116.827 68.3266 117.837 67.7874L119.33 64.2832L121.878 64.5521L122.062 68.1301C122.062 68.1301 126.931 71.8795 126.679 77.0515C126.427 82.2235 124.107 85.0658 120.225 85.9478C120.225 85.9478 121.259 87.2463 122.338 87.5905C123.416 87.9348 126.334 88.3986 126.84 88.6439C127.345 88.8891 127.987 89.2569 128.011 90.3354C128.034 91.4138 127.69 91.7565 126.84 92.4671C125.99 93.1777 124.543 93.5204 124.543 93.5204C124.543 93.5204 123.602 103.316 124.658 106.212L106.929 106.337" fill="#10529A"/>
<path d="M106.928 106.467L103.91 115.131C103.795 115.461 103.335 115.402 103.3 115.052L102.41 106.337L106.928 106.466V106.467Z" fill="#10529A"/>
<path d="M121.235 65.7847C122.482 65.7847 123.494 64.7761 123.494 63.5318C123.494 62.2876 122.482 61.2789 121.235 61.2789C119.987 61.2789 118.976 62.2876 118.976 63.5318C118.976 64.7761 119.987 65.7847 121.235 65.7847Z" fill="#10529A"/>
</svg>
