<svg width="172" height="172" viewBox="0 0 172 172" fill="none" xmlns="http://www.w3.org/2000/svg">
<g clip-path="url(#clip0_1_202)">
<path d="M171.667 0.0403125H-0.332581V172.04H171.667V0.0403125Z" fill="#2E4C66"/>
<path d="M64.6408 51.3565C53.9926 49.9098 47.8378 51.5252 45.4658 52.3993L40.4612 40.4322L39.5717 38.3057C39.4337 37.9785 39.6535 37.6053 40.0063 37.5696C50.5471 36.45 57.2591 38.0245 59.8151 38.822L58.8029 36.1996C55.0559 35.2641 47.9298 34.1905 37.5372 35.6117L36.7755 35.7139C36.4279 35.7599 36.2183 36.128 36.3563 36.45L38.1404 40.7083L39.0401 42.8502L43.83 54.3061L44.3105 55.4307L45.3943 54.8633C45.4556 54.8275 50.4551 52.2869 61.3691 53.2428C61.5992 53.2684 61.8343 53.2888 62.0746 53.3195H62.1155C63.2094 53.4319 64.3545 53.57 65.5609 53.754L64.6408 51.3514V51.3565Z" fill="#F4F4F4"/>
<path d="M65.5609 53.7539L64.6407 51.3512C53.9925 49.9046 47.8377 51.5199 45.4658 52.3941L40.4612 40.427L39.6279 40.5139C39.1167 40.5701 38.626 40.6315 38.1455 40.6979C34.6796 41.1836 32.2156 41.9861 30.6207 43.1414L30.1197 43.4993C29.8897 43.6629 29.8437 43.9798 30.0072 44.2098L41.8312 60.4914L42.9558 62.0046L43.7635 60.2818C43.7993 60.2052 47.03 53.8305 66.3839 55.8907L65.5609 53.7539ZM42.7565 57.9457L33.2789 44.9051C33.0846 44.6393 33.192 44.261 33.4987 44.1281C34.8738 43.5708 36.7244 43.1414 39.0401 42.8501L43.83 54.306L44.3105 55.4306L45.3942 54.8632C45.4556 54.8274 50.4551 52.2867 61.3691 53.2427C61.5991 53.2682 61.8343 53.2887 62.0745 53.3142C49.6832 52.7468 44.6581 55.9571 42.7565 57.9406V57.9457Z" fill="#F4F4F4"/>
<path d="M123.781 41.2349L123.275 42.6049C120.315 50.6664 113.409 54.1681 109.125 55.6046L108.179 58.0583L107.295 60.3485C111.681 60.2053 118.878 58.866 123.97 52.3943L134.746 62.1428L135.503 61.3146C135.753 61.0335 136.009 60.7574 136.259 60.4865C138.928 57.5215 141.141 54.9349 141.161 54.9042C141.591 54.3981 141.494 53.6365 140.947 53.2531L123.781 41.24H123.786L123.781 41.2349ZM134.588 58.9785L123.612 49.051L122.881 50.099C122.753 50.2779 122.626 50.4568 122.498 50.6306C122.396 50.7687 122.283 50.9016 122.181 51.0447C121.588 51.8013 120.964 52.4709 120.31 53.069C120.187 53.1866 120.064 53.294 119.947 53.3962C119.4 53.8767 118.848 54.3061 118.286 54.6895C118.101 54.8173 117.912 54.9349 117.728 55.0525C117.606 55.1343 117.478 55.2109 117.35 55.2825C117.253 55.3439 117.146 55.4052 117.048 55.4614C114.932 56.673 112.744 57.358 110.766 57.7311C110.653 57.7465 110.541 57.772 110.428 57.7874C110.009 57.8589 109.616 57.9152 109.222 57.9612C113.644 56.6167 121.143 53.161 124.839 44.7263L137.614 53.6722C138.161 54.0556 138.258 54.8275 137.818 55.3336C136.954 56.3253 135.819 57.6136 134.588 58.9836V58.9785Z" fill="#F4F4F4"/>
<path d="M136.254 60.4863L134.593 58.9782L123.617 49.0508L122.886 50.0988C122.758 50.2777 122.631 50.4566 122.503 50.6304C122.401 50.7684 122.288 50.9013 122.186 51.0445C121.593 51.801 120.969 52.4707 120.315 53.0688C120.192 53.1864 120.07 53.2937 119.952 53.396C119.405 53.8765 118.853 54.3059 118.291 54.6893C118.107 54.8171 117.917 54.9347 117.733 55.0522C117.611 55.134 117.483 55.2107 117.355 55.2823C117.253 55.3436 117.151 55.405 117.054 55.4612C114.932 56.6727 112.744 57.3577 110.771 57.7309C110.658 57.7462 110.546 57.7718 110.434 57.7871C110.014 57.8587 109.621 57.9149 109.227 57.9609C108.869 58.007 108.511 58.0325 108.179 58.0581L107.295 60.3482C111.681 60.2051 118.879 58.8658 123.97 52.394L134.746 62.1476L135.063 62.4339C135.477 62.8122 135.503 63.4512 135.119 63.855C132.108 66.9784 123.244 73.353 104.616 67.3209L103.808 69.4219C109.677 71.3389 114.656 72.0699 118.843 72.0699C132.706 72.0699 137.961 64.0033 138.253 63.5381L138.309 63.4512C138.56 63.0371 138.488 62.5106 138.13 62.1885L136.244 60.4863L136.254 60.4965V60.4863Z" fill="#F4F4F4"/>
<path d="M121.92 22.3308L109.125 55.6045L108.179 58.0583L107.295 60.3484L104.616 67.3211L103.808 69.4221L96.0228 89.6706C96.0228 89.6706 95.4656 91.5211 92.879 91.8943C90.2872 92.2675 85.1088 92.2675 82.5221 91.8943C79.9304 91.5211 79.3732 89.6706 79.3732 89.6706L66.3837 55.8959L65.5607 53.7591L64.6405 51.3565L59.8199 38.822L58.8078 36.2047L53.4709 22.3359C52.6172 20.1173 54.5853 19.7493 54.5853 19.7493H68.2751C72.3442 19.7493 72.9014 22.3359 72.9014 22.3359L87.3836 64.6885C87.4858 64.9901 87.9255 64.9901 88.0226 64.6885L102.495 22.3411C102.495 22.3411 103.052 19.7544 107.126 19.7544H120.811C120.811 19.7544 122.779 20.1276 121.925 22.3411H121.92V22.3308Z" fill="#F4F4F4"/>
<path d="M59.5593 104.209L59.2629 105.906C59.2475 106.003 59.1606 106.075 59.0584 106.075H52.6889C52.5918 106.075 52.5049 106.146 52.4844 106.244L51.8607 109.74H57.5861C57.7139 109.74 57.8111 109.853 57.7906 109.98L57.5146 111.611C57.4992 111.708 57.4123 111.785 57.3101 111.785H51.6C51.5642 111.785 51.5336 111.775 51.5029 111.759L50.8486 115.399C50.823 115.522 50.9201 115.639 51.0531 115.639H57.535C57.6628 115.639 57.7599 115.757 57.7395 115.885L57.4277 117.582C57.4123 117.679 57.3254 117.751 57.2232 117.751H48.4766C48.3539 117.751 48.2517 117.638 48.2721 117.505L50.6543 104.143C50.6697 104.04 50.7566 103.974 50.8588 103.974H59.36C59.4878 103.974 59.5849 104.086 59.5645 104.219L59.5593 104.209Z" fill="#F4F4F4"/>
<path d="M71.4241 104.301L66.1026 110.768L69.3691 117.449C69.4356 117.582 69.3333 117.74 69.1851 117.74H67.2579C67.1812 117.74 67.1096 117.694 67.0687 117.623L64.6354 112.516L60.4743 117.664C60.4334 117.715 60.3772 117.74 60.3158 117.74H58.1892C58.0154 117.74 57.9234 117.536 58.0308 117.403L63.6846 110.589L60.6277 104.26C60.5612 104.122 60.6634 103.964 60.8117 103.964H62.7031C62.7798 103.964 62.8565 104.015 62.8923 104.081L65.1671 108.871L69.1237 104.04C69.1646 103.989 69.226 103.964 69.2822 103.964H71.2707C71.4446 103.964 71.5366 104.168 71.4292 104.301H71.4241Z" fill="#F4F4F4"/>
<path d="M81.1984 105.058C80.3856 104.327 79.2405 103.964 77.753 103.964H73.2135C73.1113 103.964 73.0295 104.035 73.0091 104.132L70.6269 117.495C70.6013 117.618 70.6985 117.735 70.8314 117.735H72.6359C72.7381 117.735 72.8199 117.669 72.8404 117.567L73.5254 113.743H76.5619C77.7632 113.743 78.806 113.513 79.6802 113.063C80.5594 112.613 81.2291 111.964 81.7045 111.11C82.1748 110.262 82.4151 109.265 82.4151 108.109C82.4151 106.801 82.0061 105.778 81.1984 105.047V105.058ZM79.2405 110.793C78.622 111.356 77.753 111.637 76.6283 111.637H73.8986L74.8852 106.07H77.5178C78.3562 106.07 79.0105 106.259 79.4706 106.642C79.9307 107.026 80.1658 107.593 80.1658 108.355C80.1658 109.418 79.8591 110.231 79.2354 110.798L79.2405 110.793Z" fill="#F4F4F4"/>
<path d="M93.5285 111.09C93.9988 110.251 94.239 109.255 94.239 108.099C94.239 106.801 93.8301 105.789 93.0173 105.058C92.2045 104.327 91.0594 103.964 89.5718 103.964H84.9966C84.8995 103.964 84.8126 104.035 84.7921 104.132L82.41 117.495C82.3895 117.618 82.4866 117.735 82.6144 117.735H84.4394C84.5365 117.735 84.6234 117.669 84.6439 117.567L85.3238 113.681H88.4369L90.4102 117.623C90.446 117.694 90.5124 117.735 90.5942 117.735H92.4856C92.6339 117.735 92.7361 117.577 92.6696 117.439L90.63 113.37C90.9367 113.273 91.2281 113.155 91.5092 113.012C92.3885 112.567 93.0582 111.923 93.5336 111.079H93.5285V111.09ZM88.4574 111.642H85.6918L86.6887 106.075H89.3264C90.1801 106.075 90.8344 106.264 91.2945 106.647C91.7546 107.031 91.9898 107.598 91.9898 108.36C91.9898 109.423 91.683 110.236 91.0594 110.803C90.4408 111.366 89.5718 111.647 88.4472 111.647L88.4574 111.642Z" fill="#F4F4F4"/>
<path d="M106.324 104.209L106.027 105.906C106.012 106.003 105.925 106.075 105.823 106.075H99.4581C99.3559 106.075 99.2741 106.146 99.2537 106.244L98.6249 109.74H104.35C104.473 109.74 104.575 109.853 104.555 109.98L104.279 111.611C104.263 111.708 104.176 111.785 104.074 111.785H98.3642C98.3284 111.785 98.2977 111.775 98.2671 111.759L97.6127 115.399C97.5872 115.522 97.6894 115.639 97.8172 115.639H104.299C104.427 115.639 104.529 115.757 104.504 115.885L104.192 117.582C104.176 117.679 104.09 117.751 103.987 117.751H95.2408C95.113 117.751 95.0158 117.638 95.0363 117.505L97.4134 104.143C97.4338 104.04 97.5156 103.974 97.6178 103.974H106.119C106.242 103.974 106.344 104.086 106.324 104.219H106.334L106.324 104.209Z" fill="#F4F4F4"/>
<path d="M110.725 117.919C110.086 117.919 109.467 117.848 108.869 117.71C108.276 117.571 107.729 117.377 107.233 117.127C106.865 116.943 106.543 116.748 106.267 116.539C106.099 116.416 106.042 116.186 106.139 116.002L106.712 114.842C106.83 114.596 107.141 114.525 107.356 114.683C107.591 114.857 107.837 115.016 108.102 115.154C108.527 115.378 108.987 115.547 109.467 115.665C109.953 115.782 110.444 115.844 110.945 115.844C111.538 115.844 112.059 115.762 112.514 115.603C112.964 115.445 113.312 115.215 113.557 114.913C113.802 114.612 113.925 114.259 113.925 113.85C113.925 113.467 113.818 113.165 113.593 112.935C113.368 112.705 113.071 112.516 112.698 112.362C112.325 112.214 111.921 112.071 111.481 111.938C111.042 111.805 110.602 111.652 110.157 111.468C109.713 111.284 109.309 111.059 108.946 110.798C108.583 110.537 108.292 110.195 108.062 109.766C107.832 109.336 107.719 108.815 107.719 108.181C107.719 107.276 107.944 106.494 108.394 105.84C108.844 105.185 109.467 104.674 110.26 104.316C111.052 103.953 111.982 103.774 113.046 103.774C113.828 103.774 114.574 103.871 115.29 104.066C115.867 104.224 116.374 104.444 116.808 104.72C116.987 104.833 117.059 105.063 116.972 105.257L116.466 106.417C116.363 106.652 116.067 106.755 115.852 106.617C115.505 106.397 115.121 106.228 114.717 106.1C114.145 105.921 113.542 105.834 112.913 105.834C112.284 105.834 111.778 105.916 111.323 106.09C110.873 106.259 110.531 106.504 110.29 106.811C110.05 107.118 109.933 107.491 109.933 107.925C109.933 108.293 110.04 108.595 110.255 108.83C110.474 109.07 110.761 109.259 111.134 109.423C111.502 109.582 111.906 109.73 112.35 109.873C112.79 110.016 113.235 110.175 113.674 110.343C114.109 110.512 114.513 110.727 114.886 110.972C115.254 111.217 115.556 111.55 115.791 111.953C116.026 112.362 116.144 112.869 116.144 113.467C116.144 114.371 115.914 115.154 115.459 115.818C115.004 116.483 114.37 116.994 113.567 117.352C112.765 117.715 111.819 117.894 110.75 117.894L110.74 117.904L110.725 117.919Z" fill="#F4F4F4"/>
<path d="M121.731 117.919C121.092 117.919 120.469 117.848 119.876 117.71C119.283 117.571 118.736 117.377 118.24 117.127C117.872 116.943 117.55 116.748 117.274 116.539C117.105 116.416 117.049 116.186 117.146 116.002L117.718 114.842C117.836 114.596 118.143 114.525 118.362 114.683C118.598 114.857 118.843 115.016 119.109 115.154C119.533 115.378 119.993 115.547 120.474 115.665C120.959 115.782 121.45 115.844 121.951 115.844C122.549 115.844 123.065 115.762 123.52 115.603C123.97 115.445 124.318 115.215 124.563 114.913C124.809 114.612 124.931 114.259 124.931 113.85C124.931 113.467 124.824 113.165 124.599 112.935C124.374 112.705 124.078 112.516 123.704 112.362C123.331 112.214 122.927 112.071 122.488 111.938C122.053 111.81 121.609 111.652 121.164 111.468C120.719 111.284 120.315 111.059 119.952 110.798C119.589 110.537 119.298 110.195 119.068 109.766C118.838 109.336 118.725 108.815 118.725 108.181C118.725 107.276 118.95 106.494 119.4 105.84C119.85 105.185 120.474 104.674 121.266 104.316C122.058 103.953 122.989 103.774 124.052 103.774C124.834 103.774 125.581 103.871 126.296 104.066C126.874 104.224 127.38 104.444 127.814 104.72C127.993 104.833 128.06 105.063 127.978 105.257L127.472 106.417C127.37 106.652 127.073 106.755 126.859 106.617C126.511 106.397 126.128 106.228 125.724 106.1C125.151 105.921 124.548 105.834 123.919 105.834C123.29 105.834 122.784 105.916 122.329 106.09C121.88 106.259 121.537 106.504 121.297 106.811C121.056 107.118 120.939 107.491 120.939 107.925C120.939 108.293 121.046 108.595 121.261 108.83C121.481 109.07 121.767 109.259 122.14 109.423C122.508 109.582 122.912 109.73 123.357 109.873C123.797 110.016 124.241 110.175 124.681 110.343C125.115 110.512 125.519 110.727 125.892 110.972C126.26 111.217 126.562 111.55 126.797 111.953C127.032 112.362 127.15 112.869 127.15 113.467C127.15 114.371 126.92 115.154 126.465 115.818C126.01 116.483 125.376 116.994 124.574 117.352C123.771 117.715 122.825 117.894 121.757 117.894L121.747 117.904L121.731 117.919Z" fill="#F4F4F4"/>
<path d="M42.102 136.808C41.8976 136.808 41.7442 136.742 41.6522 136.609C41.5602 136.476 41.5346 136.287 41.5755 136.051L43.0171 126.886H39.6279C39.4438 126.886 39.2905 126.845 39.178 126.763C39.0758 126.681 39.0247 126.569 39.0247 126.421C39.0247 126.216 39.086 126.058 39.2087 125.955C39.3314 125.843 39.495 125.787 39.6892 125.787H47.8632C48.0575 125.787 48.2108 125.828 48.3131 125.909C48.4153 125.981 48.4664 126.088 48.4664 126.237C48.4664 126.441 48.4051 126.605 48.2824 126.717C48.1699 126.83 48.0115 126.886 47.8019 126.886H44.29L42.8177 136.174C42.7973 136.379 42.7257 136.542 42.603 136.655C42.4906 136.757 42.3219 136.808 42.1072 136.808H42.102ZM47.3571 136.808C47.1629 136.808 47.0146 136.747 46.9226 136.624C46.8408 136.501 46.8153 136.317 46.846 136.082L47.853 129.672C47.8939 129.467 47.9706 129.314 48.083 129.222C48.2057 129.12 48.3693 129.069 48.5636 129.069C48.7476 129.069 48.8907 129.13 48.9827 129.253C49.0748 129.375 49.1054 129.554 49.0748 129.779L48.8907 130.97H48.722C48.9367 130.352 49.2997 129.876 49.8058 129.544C50.3221 129.212 50.8997 129.038 51.5387 129.017C51.7636 129.007 51.9221 129.038 52.0039 129.109C52.0857 129.171 52.1266 129.283 52.1266 129.452C52.1266 129.667 52.0755 129.83 51.9732 129.932C51.871 130.024 51.7074 130.086 51.4774 130.117L51.1656 130.132C50.3425 130.203 49.7444 130.454 49.3866 130.873C49.0287 131.292 48.7885 131.855 48.676 132.545L48.0882 136.2C48.0677 136.394 47.9961 136.547 47.8735 136.65C47.7508 136.752 47.577 136.803 47.3623 136.803L47.3571 136.808ZM54.7184 136.839C54.2838 136.839 53.8749 136.742 53.4966 136.542C53.1234 136.348 52.8269 136.077 52.5969 135.74C52.372 135.397 52.2544 135.014 52.2544 134.579C52.2544 134.042 52.3975 133.613 52.6889 133.296C52.9905 132.964 53.4506 132.724 54.0845 132.57C54.7132 132.417 55.526 132.34 56.5127 132.34H57.7497L57.6271 133.158H56.6813C55.889 133.158 55.2551 133.199 54.795 133.281C54.3401 133.363 54.018 133.501 53.8187 133.7C53.6244 133.894 53.5222 134.165 53.5222 134.503C53.5222 134.958 53.6704 135.3 53.972 135.54C54.2838 135.775 54.6315 135.898 55.0251 135.898C55.4187 135.898 55.7561 135.816 56.0781 135.653C56.4104 135.489 56.6865 135.244 56.9165 134.927C57.1414 134.595 57.2948 134.211 57.3663 133.766L57.6628 131.88C57.7651 131.282 57.6884 130.827 57.4328 130.52C57.1874 130.209 56.7325 130.055 56.073 130.055C55.6896 130.055 55.3318 130.091 54.9893 130.163C54.6468 130.234 54.3094 130.367 53.9669 130.566C53.834 130.638 53.7113 130.669 53.5937 130.658C53.4813 130.648 53.3892 130.607 53.3126 130.536C53.241 130.454 53.2001 130.362 53.1899 130.255C53.1797 130.152 53.2052 130.05 53.2666 129.943C53.3279 129.84 53.4353 129.748 53.5937 129.662C53.9873 129.447 54.4065 129.288 54.8615 129.196C55.3267 129.094 55.7765 129.043 56.2059 129.043C56.9063 129.043 57.4635 129.176 57.8775 129.447C58.3018 129.702 58.5881 130.07 58.7466 130.546C58.8999 131.021 58.9255 131.579 58.8233 132.218L58.1894 136.195C58.1689 136.399 58.0974 136.558 57.9747 136.66C57.8622 136.762 57.7088 136.813 57.5095 136.813C57.3255 136.813 57.1823 136.752 57.0903 136.629C57.0085 136.506 56.983 136.328 57.0136 136.103L57.213 134.85L57.3357 135.004C57.2028 135.418 56.9932 135.76 56.7171 136.041C56.4513 136.307 56.1395 136.512 55.7868 136.644C55.434 136.777 55.0813 136.844 54.7184 136.844V136.839ZM61.0367 136.793C60.8425 136.793 60.6942 136.726 60.6022 136.593C60.5204 136.46 60.4949 136.276 60.5255 136.051L61.5326 129.687C61.5735 129.483 61.6502 129.324 61.7626 129.222C61.8853 129.12 62.054 129.069 62.2585 129.069C62.4425 129.069 62.5805 129.13 62.6623 129.253C62.7543 129.365 62.7799 129.539 62.739 129.764L62.5396 131.062L62.417 130.878C62.6726 130.29 63.0508 129.835 63.5467 129.518C64.0528 129.196 64.6509 129.038 65.341 129.038C65.8982 129.038 66.3634 129.15 66.7366 129.38C67.12 129.595 67.3858 129.938 67.5391 130.403C67.7027 130.858 67.7283 131.44 67.6158 132.151L66.9819 136.19C66.9615 136.394 66.8899 136.552 66.7672 136.655C66.6445 136.747 66.4759 136.793 66.2714 136.793C66.0669 136.793 65.9289 136.731 65.8369 136.609C65.7448 136.476 65.7142 136.292 65.7448 136.067L66.3634 132.151C66.4861 131.451 66.4298 130.929 66.1947 130.587C65.9595 130.234 65.5506 130.06 64.9729 130.06C64.2215 130.06 63.6234 130.29 63.1786 130.755C62.7339 131.221 62.4527 131.839 62.3249 132.611L61.7677 136.169C61.7064 136.583 61.461 136.788 61.0418 136.788L61.0367 136.793ZM72.0939 136.839C71.598 136.839 71.1226 136.782 70.6677 136.67C70.2229 136.547 69.8344 136.384 69.5072 136.19C69.3846 136.118 69.2977 136.031 69.2465 135.929C69.2056 135.816 69.1903 135.709 69.2005 135.602C69.221 135.499 69.2619 135.412 69.3232 135.341C69.3948 135.269 69.4817 135.228 69.5839 135.218C69.6964 135.208 69.8191 135.239 69.9571 135.31C70.2894 135.505 70.6319 135.653 70.9948 135.745C71.3578 135.837 71.7258 135.883 72.1092 135.883C72.6664 135.883 73.1009 135.775 73.4077 135.556C73.7297 135.331 73.8882 135.014 73.8882 134.61C73.8882 134.354 73.8013 134.14 73.6275 133.976C73.4639 133.802 73.2134 133.674 72.8862 133.603L71.4293 133.245C70.913 133.122 70.5041 132.897 70.2076 132.58C69.9162 132.248 69.7731 131.849 69.7731 131.374C69.7731 130.929 69.8957 130.531 70.1462 130.183C70.3916 129.82 70.7495 129.544 71.2146 129.345C71.6798 129.14 72.2268 129.033 72.8556 129.033C73.2696 129.033 73.6888 129.094 74.108 129.217C74.5323 129.329 74.8799 129.498 75.1611 129.713C75.2838 129.805 75.3655 129.907 75.4064 130.024C75.4576 130.127 75.4729 130.229 75.4524 130.336C75.432 130.428 75.386 130.505 75.3144 130.566C75.2429 130.628 75.1508 130.663 75.0333 130.674C74.931 130.674 74.8134 130.633 74.6754 130.551C74.4198 130.357 74.1284 130.214 73.8064 130.132C73.4843 130.04 73.1521 129.994 72.7993 129.994C72.2217 129.994 71.7667 130.111 71.4396 130.352C71.1124 130.592 70.9437 130.909 70.9437 131.313C70.9437 131.558 71.0204 131.778 71.1737 131.962C71.3271 132.136 71.5623 132.264 71.869 132.335L73.3412 132.693C73.8882 132.826 74.3125 133.051 74.609 133.357C74.9208 133.659 75.0742 134.048 75.0742 134.533C75.0742 135.254 74.8032 135.821 74.2562 136.236C73.7093 136.639 72.9885 136.839 72.0888 136.839H72.0939ZM77.6915 136.808C77.4972 136.808 77.349 136.747 77.257 136.624C77.1752 136.491 77.1496 136.302 77.1803 136.067L78.126 130.152H77.1956C77.032 130.152 76.9042 130.122 76.8225 130.06C76.7407 129.989 76.6998 129.892 76.6998 129.764C76.6998 129.58 76.7509 129.431 76.8531 129.329C76.9656 129.227 77.1138 129.176 77.303 129.176H78.4481L78.2487 129.345L78.356 128.588C78.4889 127.75 78.8212 127.09 79.3478 126.605C79.8743 126.109 80.6002 125.838 81.5306 125.787L82.0111 125.756C82.1542 125.746 82.2616 125.771 82.3382 125.833C82.42 125.884 82.4763 125.96 82.5069 126.063C82.5376 126.155 82.5376 126.252 82.5069 126.359C82.4865 126.451 82.4405 126.533 82.3689 126.605C82.3076 126.676 82.2207 126.717 82.1082 126.727L81.643 126.758C81.0449 126.799 80.5797 126.973 80.2475 127.284C79.9152 127.586 79.7056 128.026 79.6136 128.614L79.5062 129.293L79.3989 129.171H81.1472C81.3107 129.171 81.4385 129.201 81.5203 129.263C81.6021 129.324 81.643 129.416 81.643 129.544C81.643 129.738 81.5868 129.892 81.4743 129.994C81.3721 130.096 81.229 130.147 81.0398 130.147H79.3835L78.4225 136.184C78.3509 136.598 78.1055 136.803 77.6966 136.803L77.6915 136.808ZM85.2163 136.839C84.5057 136.839 83.8872 136.706 83.3606 136.435C82.8341 136.169 82.4252 135.786 82.1389 135.29C81.8577 134.784 81.7197 134.191 81.7197 133.511C81.7197 132.698 81.8833 131.952 82.2156 131.282C82.5478 130.602 83.0079 130.06 83.6111 129.656C84.2092 129.242 84.9198 129.038 85.7479 129.038C86.3358 129.038 86.8265 129.14 87.2202 129.35C87.624 129.554 87.9409 129.835 88.1812 130.188C88.4164 130.541 88.5748 130.94 88.6464 131.394C88.718 131.839 88.7282 132.299 88.6771 132.77C88.6566 132.943 88.6106 133.066 88.5391 133.127C88.4675 133.179 88.355 133.204 88.1965 133.204H82.7012L82.8239 132.386H87.9001L87.6189 132.586C87.6905 132.1 87.6751 131.66 87.5729 131.272C87.4706 130.878 87.2662 130.566 86.9697 130.326C86.6732 130.086 86.2591 129.968 85.7326 129.968C85.1754 129.968 84.7102 130.096 84.337 130.357C83.9639 130.602 83.6725 130.924 83.4527 131.318C83.2482 131.711 83.105 132.115 83.0335 132.54L82.9721 132.913C82.829 133.792 82.9619 134.497 83.376 135.034C83.79 135.571 84.4239 135.837 85.2776 135.837C85.6508 135.837 86.0086 135.791 86.3614 135.699C86.7141 135.607 87.0412 135.458 87.3531 135.249C87.4962 135.157 87.6189 135.116 87.7263 135.126C87.8387 135.126 87.9256 135.162 87.987 135.234C88.0585 135.295 88.0994 135.377 88.1096 135.479C88.1301 135.571 88.1148 135.673 88.0636 135.791C88.0228 135.893 87.941 135.99 87.8183 136.087C87.4655 136.333 87.0566 136.527 86.5812 136.66C86.1058 136.782 85.6508 136.844 85.2214 136.844L85.2163 136.839ZM90.4663 136.808C90.272 136.808 90.1237 136.747 90.0317 136.624C89.9499 136.501 89.9244 136.317 89.9551 136.082L90.9621 129.672C91.003 129.467 91.0797 129.314 91.1922 129.222C91.3148 129.12 91.4784 129.069 91.6727 129.069C91.8567 129.069 91.9998 129.13 92.0919 129.253C92.1839 129.375 92.2146 129.554 92.1839 129.779L91.9998 130.97H91.8312C92.0459 130.352 92.4088 129.876 92.9149 129.544C93.4312 129.212 94.0088 129.038 94.6478 129.017C94.8728 129.007 95.0312 129.038 95.113 129.109C95.1948 129.171 95.2357 129.283 95.2357 129.452C95.2357 129.667 95.1846 129.83 95.0823 129.932C94.9801 130.024 94.8165 130.086 94.5865 130.117L94.2747 130.132C93.4516 130.203 92.8535 130.454 92.4957 130.873C92.1328 131.297 91.8976 131.855 91.7851 132.545L91.1973 136.2C91.1768 136.394 91.1053 136.547 90.9826 136.65C90.8599 136.752 90.6861 136.803 90.4714 136.803L90.4663 136.808ZM98.9112 136.839C98.2007 136.839 97.5821 136.706 97.0556 136.435C96.529 136.169 96.1201 135.786 95.8338 135.29C95.5527 134.784 95.4146 134.191 95.4146 133.511C95.4146 132.698 95.5782 131.952 95.9105 131.282C96.2428 130.602 96.7028 130.06 97.3061 129.656C97.9042 129.242 98.6147 129.038 99.4428 129.038C100.031 129.038 100.521 129.14 100.915 129.35C101.319 129.554 101.636 129.835 101.876 130.188C102.116 130.541 102.27 130.94 102.341 131.394C102.413 131.839 102.423 132.299 102.372 132.77C102.352 132.943 102.306 133.066 102.234 133.127C102.162 133.179 102.05 133.204 101.891 133.204H96.3961L96.5188 132.386H101.595L101.314 132.586C101.385 132.1 101.37 131.66 101.268 131.272C101.166 130.878 100.961 130.566 100.665 130.326C100.363 130.091 99.954 129.968 99.4275 129.968C98.8703 129.968 98.4051 130.096 98.032 130.357C97.6588 130.602 97.3674 130.924 97.1476 131.318C96.9431 131.711 96.8 132.115 96.7284 132.54L96.6671 132.913C96.5239 133.792 96.6568 134.497 97.0709 135.034C97.485 135.571 98.1189 135.837 98.9726 135.837C99.3457 135.837 99.7036 135.791 100.056 135.699C100.409 135.607 100.736 135.458 101.048 135.249C101.191 135.157 101.314 135.116 101.421 135.126C101.534 135.126 101.621 135.162 101.682 135.234C101.753 135.295 101.794 135.377 101.805 135.479C101.825 135.571 101.81 135.673 101.759 135.791C101.718 135.893 101.636 135.99 101.513 136.087C101.16 136.333 100.752 136.527 100.276 136.66C99.8007 136.782 99.3457 136.844 98.9163 136.844L98.9112 136.839ZM104.166 136.793C103.972 136.793 103.824 136.726 103.732 136.593C103.65 136.46 103.624 136.276 103.655 136.051L104.662 129.687C104.703 129.483 104.78 129.324 104.892 129.222C105.015 129.12 105.184 129.069 105.388 129.069C105.572 129.069 105.71 129.13 105.792 129.253C105.884 129.365 105.909 129.539 105.869 129.764L105.669 131.062L105.547 130.878C105.802 130.29 106.18 129.835 106.676 129.518C107.182 129.196 107.78 129.038 108.471 129.038C109.028 129.038 109.493 129.15 109.866 129.38C110.25 129.595 110.515 129.938 110.669 130.403C110.832 130.858 110.858 131.44 110.745 132.151L110.111 136.19C110.091 136.394 110.019 136.552 109.897 136.655C109.774 136.747 109.605 136.793 109.401 136.793C109.196 136.793 109.058 136.731 108.966 136.609C108.874 136.476 108.844 136.292 108.874 136.067L109.493 132.151C109.616 131.451 109.559 130.929 109.324 130.587C109.089 130.234 108.68 130.06 108.103 130.06C107.351 130.06 106.753 130.29 106.308 130.755C105.863 131.221 105.582 131.839 105.455 132.611L104.897 136.169C104.836 136.583 104.591 136.788 104.171 136.788L104.166 136.793ZM115.765 136.839C115.024 136.839 114.411 136.701 113.925 136.42C113.439 136.138 113.071 135.75 112.826 135.244C112.591 134.738 112.468 134.155 112.468 133.495C112.468 132.938 112.545 132.396 112.698 131.87C112.852 131.333 113.097 130.853 113.424 130.428C113.756 130.004 114.17 129.672 114.676 129.421C115.183 129.166 115.786 129.033 116.486 129.033C116.88 129.033 117.253 129.084 117.616 129.186C117.989 129.288 118.306 129.432 118.577 129.621C118.72 129.702 118.822 129.805 118.889 129.932C118.95 130.045 118.971 130.157 118.95 130.275C118.93 130.377 118.884 130.469 118.812 130.556C118.751 130.628 118.669 130.669 118.567 130.679C118.464 130.689 118.357 130.658 118.24 130.587C117.984 130.403 117.713 130.265 117.437 130.183C117.156 130.101 116.859 130.06 116.537 130.06C116.031 130.06 115.602 130.157 115.254 130.357C114.901 130.551 114.615 130.817 114.385 131.144C114.17 131.476 114.007 131.844 113.905 132.258C113.802 132.662 113.751 133.066 113.751 133.48C113.751 134.181 113.915 134.748 114.247 135.182C114.59 135.607 115.147 135.816 115.919 135.816C116.164 135.816 116.425 135.781 116.691 135.709C116.956 135.627 117.227 135.499 117.493 135.32C117.595 135.249 117.698 135.223 117.805 135.244C117.907 135.254 117.989 135.295 118.05 135.366C118.122 135.438 118.168 135.525 118.188 135.627C118.209 135.719 118.199 135.816 118.158 135.924C118.127 136.026 118.05 136.118 117.928 136.205C117.647 136.399 117.309 136.558 116.905 136.67C116.501 136.782 116.123 136.839 115.76 136.839H115.765ZM120.11 136.808C119.916 136.808 119.768 136.747 119.676 136.624C119.594 136.491 119.569 136.302 119.599 136.067L120.622 129.687C120.652 129.483 120.724 129.324 120.836 129.222C120.959 129.12 121.128 129.069 121.332 129.069C121.537 129.069 121.675 129.13 121.767 129.253C121.859 129.375 121.884 129.559 121.843 129.794L120.836 136.19C120.806 136.394 120.729 136.552 120.606 136.655C120.494 136.757 120.325 136.808 120.11 136.808ZM121.644 127.366C121.399 127.366 121.21 127.305 121.087 127.182C120.964 127.06 120.913 126.886 120.934 126.671C120.944 126.405 121.031 126.196 121.194 126.052C121.368 125.909 121.598 125.838 121.874 125.838C122.119 125.838 122.309 125.899 122.431 126.022C122.554 126.134 122.605 126.308 122.585 126.533C122.564 126.799 122.472 127.008 122.304 127.152C122.14 127.295 121.915 127.366 121.639 127.366H121.644ZM125.616 136.839C125.182 136.839 124.773 136.742 124.394 136.542C124.021 136.348 123.725 136.077 123.495 135.74C123.27 135.397 123.152 135.014 123.152 134.579C123.152 134.042 123.295 133.613 123.587 133.296C123.888 132.964 124.348 132.724 124.982 132.57C125.611 132.417 126.424 132.34 127.41 132.34H128.647L128.525 133.158H127.579C126.787 133.158 126.153 133.199 125.693 133.281C125.238 133.363 124.916 133.501 124.716 133.7C124.522 133.894 124.42 134.165 124.42 134.503C124.42 134.958 124.568 135.3 124.87 135.54C125.182 135.775 125.529 135.898 125.923 135.898C126.316 135.898 126.654 135.816 126.976 135.653C127.308 135.489 127.584 135.244 127.814 134.927C128.039 134.595 128.192 134.211 128.264 133.766L128.561 131.88C128.663 131.282 128.586 130.827 128.331 130.52C128.085 130.209 127.63 130.055 126.971 130.055C126.587 130.055 126.229 130.091 125.887 130.163C125.544 130.234 125.207 130.367 124.865 130.566C124.732 130.638 124.609 130.669 124.491 130.658C124.379 130.648 124.287 130.607 124.21 130.536C124.139 130.454 124.098 130.362 124.088 130.255C124.077 130.147 124.103 130.05 124.164 129.943C124.226 129.84 124.333 129.748 124.491 129.662C124.885 129.447 125.304 129.288 125.759 129.196C126.224 129.094 126.674 129.043 127.104 129.043C127.804 129.043 128.361 129.176 128.775 129.447C129.2 129.702 129.486 130.07 129.644 130.546C129.798 131.021 129.823 131.579 129.721 132.218L129.087 136.195C129.067 136.399 128.995 136.558 128.872 136.66C128.76 136.762 128.607 136.813 128.407 136.813C128.223 136.813 128.08 136.752 127.988 136.629C127.906 136.506 127.881 136.328 127.911 136.103L128.111 134.85L128.233 135.004C128.1 135.418 127.891 135.76 127.615 136.041C127.349 136.307 127.037 136.512 126.684 136.644C126.332 136.777 125.979 136.844 125.616 136.844V136.839ZM134.194 136.839C133.698 136.839 133.223 136.782 132.768 136.67C132.323 136.547 131.934 136.384 131.607 136.19C131.485 136.118 131.398 136.031 131.347 135.929C131.306 135.816 131.29 135.709 131.301 135.602C131.321 135.499 131.362 135.412 131.423 135.341C131.495 135.269 131.582 135.228 131.684 135.218C131.796 135.208 131.919 135.239 132.057 135.31C132.389 135.505 132.732 135.653 133.095 135.745C133.458 135.837 133.826 135.883 134.209 135.883C134.766 135.883 135.201 135.775 135.508 135.556C135.83 135.331 135.988 135.014 135.988 134.61C135.988 134.354 135.901 134.14 135.728 133.976C135.564 133.802 135.313 133.674 134.986 133.603L133.529 133.245C133.013 133.122 132.604 132.897 132.308 132.58C132.016 132.248 131.873 131.849 131.873 131.374C131.873 130.929 131.996 130.531 132.246 130.183C132.492 129.82 132.849 129.544 133.315 129.345C133.78 129.14 134.327 129.033 134.956 129.033C135.37 129.033 135.789 129.094 136.208 129.217C136.632 129.329 136.98 129.498 137.261 129.713C137.384 129.805 137.466 129.907 137.506 130.024C137.558 130.127 137.573 130.229 137.552 130.336C137.532 130.428 137.486 130.505 137.414 130.566C137.343 130.628 137.251 130.663 137.133 130.674C137.031 130.674 136.913 130.633 136.775 130.551C136.52 130.357 136.228 130.214 135.906 130.132C135.584 130.04 135.252 129.994 134.899 129.994C134.322 129.994 133.867 130.111 133.54 130.352C133.212 130.592 133.044 130.909 133.044 131.313C133.044 131.558 133.12 131.778 133.274 131.962C133.427 132.136 133.662 132.264 133.969 132.335L135.441 132.693C135.988 132.826 136.412 133.051 136.709 133.357C137.021 133.659 137.174 134.048 137.174 134.533C137.174 135.254 136.903 135.821 136.356 136.236C135.809 136.639 135.089 136.839 134.189 136.839H134.194ZM50.1534 152.318C49.7189 152.318 49.3099 152.221 48.9316 152.021C48.5584 151.827 48.262 151.556 48.0319 151.219C47.807 150.876 47.6894 150.493 47.6894 150.058C47.6894 149.521 47.8326 149.092 48.1239 148.775C48.4255 148.443 48.8856 148.203 49.5195 148.049C50.1483 147.896 50.9611 147.819 51.9477 147.819H53.1848L53.0621 148.637H52.1164C51.324 148.637 50.6901 148.678 50.2301 148.76C49.7751 148.842 49.453 148.98 49.2537 149.179C49.0594 149.373 48.9572 149.644 48.9572 149.982C48.9572 150.437 49.1054 150.779 49.407 151.019C49.7189 151.254 50.0665 151.377 50.4601 151.377C50.8537 151.377 51.1911 151.295 51.5132 151.132C51.8454 150.968 52.1215 150.723 52.3515 150.406C52.5764 150.074 52.7298 149.69 52.8014 149.245L53.0979 147.359C53.2001 146.761 53.1234 146.306 52.8678 145.999C52.6225 145.688 52.1675 145.534 51.5081 145.534C51.1247 145.534 50.7668 145.57 50.4243 145.642C50.0818 145.713 49.7444 145.846 49.4019 146.045C49.269 146.117 49.1463 146.148 49.0287 146.137C48.9163 146.127 48.8243 146.086 48.7476 146.015C48.676 145.933 48.6351 145.841 48.6249 145.734C48.6147 145.631 48.6402 145.529 48.7016 145.422C48.7629 145.319 48.8703 145.227 49.0287 145.141C49.4224 144.926 49.8416 144.767 50.2965 144.675C50.7617 144.573 51.2116 144.522 51.641 144.522C52.3413 144.522 52.8985 144.655 53.3126 144.926C53.7369 145.181 54.0231 145.549 54.1816 146.025C54.335 146.5 54.3605 147.058 54.2583 147.697L53.6244 151.674C53.604 151.878 53.5324 152.037 53.4097 152.139C53.2972 152.241 53.1439 152.292 52.9445 152.292C52.7605 152.292 52.6173 152.231 52.5253 152.108C52.4435 151.985 52.418 151.807 52.4486 151.582L52.648 150.329L52.7707 150.483C52.6378 150.897 52.4282 151.239 52.1522 151.52C51.8863 151.786 51.5745 151.991 51.2218 152.123C50.8691 152.256 50.5163 152.323 50.1534 152.323V152.318ZM64.2266 152.302C63.9352 152.302 63.7052 152.231 63.5314 152.088C63.3576 151.934 63.2246 151.709 63.1429 151.423L60.5869 142.493C60.5255 142.247 60.5204 142.032 60.5715 141.859C60.6329 141.675 60.7402 141.526 60.8987 141.424C61.0521 141.322 61.2412 141.271 61.4559 141.271C61.7013 141.271 61.9109 141.332 62.0745 141.455C62.238 141.578 62.3658 141.808 62.4476 142.135L64.6918 150.416H64.0272L69.0114 141.966C69.1545 141.721 69.313 141.542 69.4766 141.439C69.6402 141.327 69.8549 141.271 70.1105 141.271C70.3661 141.271 70.5859 141.332 70.729 141.455C70.8824 141.578 70.9693 141.741 70.9897 141.935C71.0102 142.13 70.9539 142.339 70.821 142.554L65.3717 151.592C65.2285 151.837 65.065 152.021 64.8911 152.134C64.7173 152.246 64.4924 152.302 64.2266 152.302ZM73.6582 152.333C72.8965 152.333 72.2268 152.195 71.6594 151.914C71.1022 151.622 70.6677 151.224 70.3609 150.707C70.0491 150.191 69.8958 149.588 69.8958 148.898C69.8958 148.049 70.0696 147.298 70.4223 146.638C70.7852 145.969 71.2811 145.437 71.9099 145.043C72.5386 144.65 73.2594 144.456 74.0773 144.456C74.7061 144.456 75.2326 144.563 75.6569 144.783C76.0812 145.003 76.4135 145.294 76.664 145.667C76.9094 146.03 77.078 146.439 77.1598 146.904C77.2416 147.369 77.257 147.845 77.2058 148.33C77.1854 148.545 77.1292 148.688 77.0372 148.75C76.9451 148.811 76.8173 148.842 76.6486 148.842H71.4498L71.6031 147.727H75.9381L75.6774 147.957C75.7387 147.543 75.7234 147.18 75.6314 146.858C75.5394 146.526 75.3655 146.265 75.1048 146.071C74.8595 145.877 74.5118 145.774 74.0671 145.774C73.6224 145.774 73.2287 145.877 72.922 146.086C72.6153 146.296 72.3699 146.562 72.1961 146.889C72.0223 147.211 71.8996 147.553 71.8383 147.927L71.7616 148.407C71.6389 149.159 71.7616 149.757 72.1348 150.201C72.508 150.646 73.0754 150.866 73.8371 150.866C74.1489 150.866 74.4658 150.835 74.7981 150.774C75.1304 150.702 75.4269 150.59 75.6978 150.431C75.8921 150.319 76.0659 150.273 76.209 150.293C76.3624 150.304 76.48 150.36 76.5669 150.462C76.6589 150.554 76.7151 150.672 76.7355 150.82C76.756 150.953 76.7304 151.101 76.6589 151.254C76.5975 151.398 76.4851 151.525 76.3164 151.643C75.9534 151.878 75.5291 152.057 75.0333 152.169C74.5374 152.282 74.0824 152.338 73.6735 152.338L73.6582 152.333ZM79.0768 152.287C78.7752 152.287 78.5554 152.19 78.4123 151.991C78.2794 151.786 78.2385 151.505 78.2896 151.152L79.1893 145.442C79.2404 145.12 79.358 144.885 79.5471 144.732C79.7414 144.568 79.997 144.486 80.3037 144.486C80.5951 144.486 80.8047 144.573 80.9376 144.747C81.0705 144.921 81.1114 145.187 81.0603 145.534L80.9069 146.526L80.8456 146.137C81.1012 145.59 81.4692 145.171 81.9446 144.885C82.4303 144.594 82.9977 144.45 83.6469 144.45C84.2041 144.45 84.6693 144.563 85.0425 144.793C85.4259 145.018 85.6917 145.371 85.8451 145.846C86.0086 146.311 86.0342 146.909 85.9217 147.64L85.3492 151.326C85.3083 151.648 85.1907 151.888 84.9914 152.052C84.8073 152.205 84.5517 152.282 84.2348 152.282C83.9332 152.282 83.7134 152.185 83.5702 151.985C83.4271 151.781 83.3811 151.5 83.4322 151.147L83.9894 147.666C84.0814 147.098 84.0354 146.674 83.8514 146.398C83.6776 146.107 83.3504 145.964 82.875 145.964C82.2667 145.964 81.7759 146.153 81.4028 146.536C81.0398 146.919 80.8098 147.441 80.7075 148.1L80.1963 151.321C80.1043 151.96 79.7312 152.282 79.0819 152.282L79.0768 152.287ZM91.1001 152.333C90.3385 152.333 89.6688 152.195 89.1014 151.914C88.5442 151.622 88.1096 151.224 87.8029 150.707C87.4911 150.191 87.3377 149.588 87.3377 148.898C87.3377 148.049 87.5115 147.298 87.8643 146.638C88.2272 145.969 88.7231 145.437 89.3519 145.043C89.9806 144.65 90.7014 144.456 91.5193 144.456C92.1481 144.456 92.6746 144.563 93.0989 144.783C93.5232 144.997 93.8555 145.294 94.106 145.667C94.3513 146.03 94.52 146.439 94.6018 146.904C94.6836 147.369 94.6989 147.845 94.6478 148.33C94.6274 148.545 94.5712 148.688 94.4791 148.75C94.3871 148.811 94.2593 148.842 94.0906 148.842H88.8918L89.0451 147.727H93.3801L93.1194 147.957C93.1807 147.543 93.1654 147.18 93.0734 146.858C92.9813 146.526 92.8075 146.265 92.5468 146.071C92.3014 145.877 91.9538 145.774 91.5091 145.774C91.0644 145.774 90.6707 145.877 90.364 146.086C90.0573 146.296 89.8119 146.562 89.6381 146.889C89.4643 147.211 89.3416 147.553 89.2803 147.927L89.2036 148.407C89.0809 149.159 89.2036 149.757 89.5768 150.201C89.95 150.646 90.5174 150.866 91.2791 150.866C91.5909 150.866 91.9078 150.835 92.2401 150.774C92.5724 150.702 92.8689 150.59 93.1398 150.431C93.3341 150.319 93.5079 150.273 93.651 150.293C93.8044 150.304 93.9219 150.36 94.0088 150.462C94.1008 150.554 94.1571 150.672 94.1775 150.82C94.198 150.953 94.1724 151.101 94.1009 151.254C94.0395 151.398 93.927 151.525 93.7584 151.643C93.3954 151.878 92.9711 152.057 92.4753 152.169C91.9794 152.282 91.5244 152.338 91.1155 152.338L91.1001 152.333ZM96.1201 152.18C95.9054 152.18 95.7265 152.139 95.5935 152.057C95.4606 151.965 95.3686 151.847 95.3124 151.699C95.2613 151.556 95.2562 151.398 95.2971 151.234C95.3482 151.06 95.4504 150.886 95.6089 150.723L100.394 145.601L100.455 146.066H96.9431C96.6977 146.066 96.5035 146.015 96.3706 145.912C96.2377 145.8 96.1712 145.652 96.1712 145.463C96.1712 145.197 96.2479 144.987 96.4012 144.844C96.5648 144.691 96.7795 144.614 97.0351 144.614H101.508C101.723 144.614 101.902 144.66 102.035 144.752C102.178 144.834 102.27 144.946 102.316 145.095C102.367 145.238 102.362 145.406 102.3 145.59C102.249 145.764 102.142 145.943 101.973 146.117L97.1731 151.239L97.1118 150.728H100.859C101.375 150.728 101.631 150.927 101.631 151.331C101.631 151.587 101.554 151.796 101.401 151.95C101.247 152.103 101.033 152.18 100.767 152.18H96.1252H96.1201ZM105.495 152.333C104.959 152.333 104.499 152.221 104.12 151.991C103.742 151.761 103.466 151.413 103.302 150.937C103.149 150.462 103.129 149.859 103.241 149.128L103.844 145.381C103.895 145.069 104.008 144.844 104.187 144.701C104.361 144.558 104.601 144.486 104.897 144.486C105.219 144.486 105.449 144.578 105.593 144.767C105.746 144.941 105.797 145.207 105.746 145.555L105.189 149.113C105.107 149.68 105.148 150.104 105.311 150.38C105.485 150.661 105.807 150.799 106.272 150.799C106.85 150.799 107.32 150.61 107.683 150.227C108.046 149.844 108.276 149.322 108.379 148.663L108.89 145.381C108.941 145.069 109.053 144.844 109.232 144.701C109.406 144.558 109.646 144.486 109.943 144.486C110.275 144.486 110.51 144.578 110.653 144.767C110.797 144.957 110.843 145.222 110.791 145.57L109.876 151.392C109.784 152.001 109.432 152.308 108.823 152.308C108.522 152.308 108.302 152.226 108.159 152.062C108.016 151.899 107.964 151.643 108.005 151.306L108.159 150.191L108.266 150.61C108 151.178 107.622 151.612 107.136 151.909C106.661 152.2 106.114 152.343 105.495 152.343V152.333ZM115.684 152.333C114.922 152.333 114.252 152.195 113.685 151.914C113.128 151.622 112.693 151.224 112.386 150.707C112.074 150.191 111.921 149.588 111.921 148.898C111.921 148.049 112.095 147.298 112.448 146.638C112.811 145.969 113.306 145.437 113.935 145.043C114.564 144.65 115.285 144.456 116.103 144.456C116.731 144.456 117.258 144.563 117.682 144.783C118.107 144.997 118.439 145.294 118.689 145.667C118.935 146.03 119.103 146.439 119.185 146.904C119.267 147.369 119.282 147.845 119.231 148.33C119.211 148.545 119.155 148.688 119.063 148.75C118.971 148.811 118.843 148.842 118.674 148.842H113.475L113.629 147.727H117.963L117.703 147.957C117.764 147.543 117.749 147.18 117.657 146.858C117.565 146.526 117.391 146.265 117.13 146.071C116.885 145.877 116.537 145.774 116.092 145.774C115.648 145.774 115.254 145.877 114.947 146.086C114.641 146.296 114.395 146.562 114.222 146.889C114.048 147.211 113.925 147.553 113.864 147.927L113.787 148.407C113.664 149.159 113.787 149.757 114.16 150.201C114.533 150.646 115.101 150.866 115.862 150.866C116.174 150.866 116.491 150.835 116.823 150.774C117.156 150.702 117.452 150.59 117.723 150.431C117.917 150.319 118.091 150.273 118.234 150.293C118.388 150.304 118.505 150.36 118.592 150.462C118.684 150.554 118.74 150.672 118.761 150.82C118.781 150.953 118.756 151.101 118.684 151.254C118.623 151.398 118.51 151.525 118.342 151.643C117.979 151.878 117.555 152.057 117.059 152.169C116.563 152.282 116.108 152.338 115.699 152.338L115.684 152.333ZM122.784 152.333C121.925 152.333 121.307 152.093 120.928 151.607C120.545 151.111 120.427 150.396 120.571 149.455L121.746 142.104C121.797 141.782 121.915 141.547 122.104 141.393C122.288 141.23 122.544 141.148 122.861 141.148C123.162 141.148 123.377 141.245 123.51 141.445C123.653 141.639 123.699 141.92 123.648 142.283L122.503 149.45C122.431 149.905 122.467 150.237 122.61 150.457C122.764 150.661 123.014 150.769 123.351 150.769C123.464 150.769 123.556 150.764 123.633 150.753C123.704 150.733 123.771 150.723 123.832 150.723C123.934 150.723 124.016 150.759 124.077 150.83C124.139 150.902 124.169 151.04 124.169 151.249C124.169 151.551 124.108 151.781 123.985 151.945C123.863 152.098 123.714 152.2 123.535 152.256C123.443 152.287 123.326 152.307 123.178 152.318C123.035 152.338 122.896 152.348 122.774 152.348L122.784 152.333ZM127.666 152.333C127.201 152.333 126.776 152.231 126.398 152.021C126.015 151.807 125.708 151.52 125.468 151.168C125.243 150.815 125.125 150.426 125.125 149.992C125.125 149.455 125.274 149.021 125.575 148.693C125.877 148.351 126.337 148.1 126.971 147.937C127.605 147.773 128.407 147.691 129.384 147.691H130.621L130.452 148.806H129.476C128.867 148.806 128.382 148.836 128.019 148.898C127.656 148.959 127.4 149.067 127.247 149.225C127.093 149.383 127.017 149.598 127.017 149.874C127.017 150.237 127.134 150.513 127.375 150.713C127.62 150.907 127.922 151.009 128.274 151.009C128.607 151.009 128.903 150.943 129.174 150.81C129.44 150.667 129.67 150.462 129.854 150.206C130.038 149.941 130.161 149.624 130.212 149.261L130.508 147.42C130.59 146.935 130.513 146.562 130.278 146.306C130.053 146.05 129.649 145.918 129.072 145.918C128.729 145.918 128.402 145.953 128.08 146.025C127.758 146.086 127.431 146.194 127.088 146.352C126.894 146.434 126.715 146.459 126.562 146.429C126.408 146.398 126.275 146.332 126.173 146.229C126.081 146.117 126.03 145.989 126.02 145.841C126.01 145.688 126.051 145.534 126.143 145.391C126.245 145.248 126.408 145.125 126.638 145.018C127.073 144.824 127.523 144.68 127.983 144.599C128.458 144.507 128.903 144.461 129.312 144.461C130.125 144.461 130.769 144.609 131.229 144.911C131.694 145.212 132.006 145.616 132.175 146.132C132.338 146.649 132.369 147.236 132.267 147.896L131.725 151.346C131.684 151.669 131.571 151.909 131.382 152.072C131.209 152.226 130.968 152.302 130.672 152.302C130.391 152.302 130.181 152.215 130.038 152.042C129.905 151.858 129.864 151.587 129.915 151.239L130.069 150.263L130.176 150.575C130.033 150.978 129.823 151.311 129.557 151.582C129.302 151.837 129.005 152.031 128.673 152.154C128.351 152.277 128.019 152.338 127.666 152.338V152.333Z" fill="#F0F0F0"/>
</g>
<defs>
<clipPath id="clip0_1_202">
<rect width="172" height="172" fill="white"/>
</clipPath>
</defs>
</svg>
