<svg width="240" height="213" viewBox="0 0 240 213" fill="none" xmlns="http://www.w3.org/2000/svg">
<rect width="240" height="213" rx="30" fill="white"/>
<g clip-path="url(#clip0_9_90)">
<path d="M99.3157 89.2318C88.794 87.8002 82.7143 89.3985 80.3707 90.2615L75.4236 78.4355L74.546 76.3371C74.4087 76.0135 74.6294 75.6458 74.9775 75.6114C85.3913 74.5034 92.025 76.0625 94.55 76.847L93.5498 74.2582C89.8481 73.3316 82.8075 72.2725 72.5407 73.6748L71.7905 73.7777C71.4473 73.8219 71.2414 74.1847 71.3787 74.5034L73.1389 78.7101L74.0263 80.8282L78.7576 92.1491L79.2332 93.2621L80.3021 92.7031C80.3609 92.6688 85.3031 90.1585 96.0847 91.0999C96.3102 91.1244 96.5455 91.144 96.7809 91.1734H96.8201C97.8988 91.2862 99.0313 91.4235 100.223 91.6049L99.3157 89.2318Z" fill="#10709C"/>
<path d="M100.223 91.6049L99.3158 89.2318C88.7941 87.8002 82.7144 89.3985 80.3708 90.2615L75.4237 78.4355L74.6 78.5238C74.095 78.5777 73.6096 78.6415 73.1341 78.7052C69.7118 79.1857 67.275 79.98 65.7012 81.1175L65.206 81.4705C64.9804 81.6323 64.9314 81.9461 65.0932 82.1716L76.7769 98.2582L77.8899 99.7536L78.6891 98.0523C78.7234 97.9787 81.9152 91.6784 101.037 93.7131L100.223 91.6V91.6049ZM77.6938 95.743L68.3292 82.858C68.1379 82.5933 68.2409 82.2206 68.5449 82.0931C69.903 81.544 71.7318 81.1175 74.0215 80.8282L78.7528 92.1491L79.2284 93.2621L80.2973 92.7031C80.3561 92.6688 85.2983 90.1585 96.0799 91.0999C96.3054 91.1244 96.5407 91.144 96.7761 91.1734C84.5334 90.6145 79.5667 93.7867 77.6889 95.743H77.6938Z" fill="#10709C"/>
<path d="M157.749 79.2347L157.249 80.588C154.327 88.5553 147.502 92.0118 143.266 93.4337L142.334 95.8557L141.461 98.1209C145.796 97.9787 152.905 96.6549 157.935 90.2615L168.58 99.8958L169.325 99.077C169.575 98.7975 169.825 98.5279 170.07 98.2582C172.708 95.3311 174.895 92.7718 174.914 92.7424C175.341 92.2423 175.243 91.4872 174.703 91.1097L157.744 79.2396L157.749 79.2347ZM168.428 96.7628L157.582 86.952L156.862 87.9865C156.734 88.163 156.612 88.3395 156.484 88.5111C156.381 88.6484 156.273 88.7808 156.17 88.9181C155.582 89.6633 154.969 90.3252 154.322 90.9185C154.199 91.0361 154.082 91.1391 153.964 91.2421C153.425 91.7177 152.876 92.1393 152.321 92.5217C152.14 92.6492 151.954 92.7669 151.772 92.8797C151.65 92.963 151.522 93.0365 151.4 93.1052C151.302 93.164 151.199 93.2278 151.101 93.2817C149.007 94.478 146.845 95.1546 144.893 95.5223C144.781 95.5371 144.673 95.5616 144.56 95.5763C144.148 95.6498 143.756 95.7038 143.369 95.7479C147.737 94.4192 155.146 91.0067 158.798 82.6717L171.418 91.5117C171.958 91.8893 172.056 92.6541 171.619 93.1542C170.766 94.1348 169.644 95.4096 168.428 96.7628Z" fill="#10709C"/>
<path d="M170.07 98.2532L168.428 96.7627L157.582 86.9519L156.862 87.9864C156.734 88.1629 156.612 88.3394 156.484 88.511C156.381 88.6483 156.273 88.7807 156.17 88.918C155.582 89.6632 154.969 90.3251 154.322 90.9184C154.199 91.0361 154.082 91.139 153.964 91.242C153.425 91.7176 152.876 92.1392 152.321 92.5217C152.14 92.6491 151.954 92.7668 151.772 92.8796C151.65 92.9629 151.522 93.0365 151.4 93.1051C151.302 93.1639 151.199 93.2277 151.101 93.2816C149.007 94.4779 146.845 95.1545 144.894 95.5223C144.781 95.537 144.673 95.5615 144.56 95.5762C144.148 95.6497 143.756 95.7037 143.369 95.7478C143.016 95.7919 142.663 95.8213 142.334 95.8459L141.461 98.111C145.796 97.9688 152.905 96.645 157.935 90.2516L168.58 99.8859L168.893 100.17C169.3 100.543 169.33 101.175 168.947 101.573C165.971 104.661 157.215 110.957 138.809 105L138.01 107.074C143.81 108.966 148.728 109.692 152.866 109.692C166.565 109.692 171.757 101.72 172.046 101.264L172.1 101.175C172.35 100.768 172.277 100.244 171.923 99.9251L170.06 98.2434L170.07 98.2532Z" fill="#10709C"/>
<path d="M155.91 60.5545L143.266 93.4287L142.334 95.8508L141.461 98.116L138.814 105.005L138.015 107.079L130.322 127.083C130.322 127.083 129.773 128.911 127.218 129.279C124.659 129.647 119.54 129.647 116.986 129.279C114.427 128.911 113.877 127.083 113.877 127.083L101.042 93.7131L100.228 91.5999L99.3206 89.2269L94.5598 76.8421L93.5596 74.2533L88.2889 60.5496C87.4456 58.3579 89.3872 57.9951 89.3872 57.9951H102.914C106.935 57.9951 107.484 60.5496 107.484 60.5496L121.791 102.396C121.894 102.695 122.325 102.695 122.423 102.396L136.72 60.5545C136.72 60.5545 137.269 58 141.295 58H154.817C154.817 58 156.759 58.3677 155.915 60.5545H155.91Z" fill="#10709C"/>
<path d="M94.2952 141.453L94.001 143.13C93.9863 143.228 93.898 143.297 93.8 143.297H87.5095C87.4114 143.297 87.3281 143.365 87.3084 143.463L86.6907 146.915C86.6907 146.915 86.7054 146.915 86.7152 146.915H92.3487C92.4762 146.915 92.5693 147.028 92.5497 147.15L92.2751 148.763C92.2604 148.861 92.1722 148.935 92.0741 148.935H86.4308C86.3965 148.935 86.3671 148.925 86.3377 148.911L85.6905 152.504C85.666 152.627 85.764 152.745 85.8915 152.745H92.2947C92.4222 152.745 92.5154 152.862 92.4958 152.985L92.1869 154.662C92.1722 154.76 92.0839 154.828 91.9859 154.828H83.342C83.2194 154.828 83.1213 154.716 83.1409 154.588L85.4944 141.384C85.5091 141.286 85.5973 141.218 85.6954 141.218H94.0941C94.2216 141.218 94.3148 141.331 94.2952 141.458V141.453Z" fill="#10709C"/>
<path d="M106.018 141.546L100.757 147.935L103.983 154.534C104.047 154.667 103.949 154.823 103.802 154.823H101.9C101.821 154.823 101.753 154.779 101.713 154.706L99.311 149.661L95.2023 154.745C95.1631 154.794 95.1091 154.819 95.0454 154.819H92.942C92.7704 154.819 92.6773 154.618 92.7851 154.485L98.3696 147.753L95.3494 141.502C95.2856 141.365 95.3837 141.208 95.5308 141.208H97.3988C97.4773 141.208 97.5508 141.257 97.5851 141.326L99.8307 146.057L103.738 141.282C103.778 141.233 103.836 141.208 103.895 141.208H105.861C106.033 141.208 106.126 141.409 106.018 141.541V141.546Z" fill="#10709C"/>
<path d="M115.672 142.292C114.868 141.571 113.735 141.213 112.269 141.213H107.783C107.685 141.213 107.602 141.282 107.582 141.38L105.229 154.583C105.204 154.706 105.302 154.823 105.43 154.823H107.214C107.312 154.823 107.396 154.755 107.415 154.657L108.092 150.877H111.093C112.279 150.877 113.309 150.651 114.172 150.205C115.039 149.759 115.701 149.116 116.172 148.278C116.638 147.44 116.873 146.454 116.873 145.312C116.873 144.017 116.471 143.007 115.672 142.287V142.292ZM113.74 147.959C113.127 148.513 112.269 148.793 111.161 148.793H108.465L109.44 143.292H112.044C112.872 143.292 113.52 143.478 113.971 143.856C114.427 144.233 114.657 144.797 114.657 145.547C114.657 146.596 114.353 147.4 113.74 147.959Z" fill="#10709C"/>
<path d="M127.856 148.254C128.322 147.425 128.557 146.439 128.557 145.297C128.557 144.012 128.155 143.012 127.351 142.292C126.547 141.571 125.414 141.213 123.948 141.213H119.428C119.33 141.213 119.246 141.282 119.227 141.38L116.873 154.583C116.854 154.706 116.947 154.823 117.074 154.823H118.879C118.977 154.823 119.06 154.755 119.08 154.657L119.751 150.818H122.825L124.777 154.711C124.811 154.779 124.88 154.823 124.958 154.823H126.826C126.973 154.823 127.076 154.667 127.008 154.529L124.993 150.509C125.296 150.416 125.586 150.298 125.86 150.156C126.728 149.715 127.39 149.077 127.861 148.249L127.856 148.254ZM122.845 148.798H120.114L121.1 143.297H123.708C124.551 143.297 125.198 143.483 125.654 143.86C126.11 144.238 126.341 144.802 126.341 145.552C126.341 146.601 126.037 147.405 125.424 147.964C124.811 148.518 123.953 148.798 122.845 148.798Z" fill="#10709C"/>
<path d="M140.501 141.453L140.206 143.13C140.192 143.228 140.103 143.297 140.005 143.297H133.715C133.617 143.297 133.534 143.365 133.514 143.463L132.891 146.915C132.891 146.915 132.906 146.915 132.916 146.915H138.549C138.672 146.915 138.77 147.028 138.75 147.15L138.476 148.763C138.461 148.861 138.373 148.935 138.275 148.935H132.631C132.597 148.935 132.568 148.925 132.538 148.911L131.891 152.504C131.866 152.627 131.965 152.745 132.092 152.745H138.495C138.623 152.745 138.721 152.862 138.696 152.985L138.387 154.662C138.373 154.76 138.284 154.828 138.186 154.828H129.543C129.415 154.828 129.322 154.716 129.341 154.588L131.69 141.384C131.71 141.286 131.793 141.218 131.891 141.218H140.29C140.412 141.218 140.51 141.331 140.491 141.458L140.501 141.453Z" fill="#10709C"/>
<path d="M144.849 155C144.217 155 143.604 154.931 143.016 154.794C142.427 154.657 141.888 154.466 141.398 154.22C141.035 154.039 140.716 153.848 140.442 153.642C140.275 153.519 140.221 153.294 140.314 153.112L140.878 151.965C140.996 151.725 141.3 151.651 141.515 151.808C141.746 151.98 141.991 152.137 142.251 152.274C142.673 152.495 143.124 152.661 143.599 152.779C144.08 152.897 144.565 152.955 145.06 152.955C145.649 152.955 146.163 152.877 146.61 152.72C147.056 152.563 147.399 152.338 147.639 152.039C147.879 151.74 148.002 151.391 148.002 150.989C148.002 150.612 147.894 150.313 147.674 150.087C147.453 149.862 147.159 149.67 146.791 149.523C146.423 149.376 146.021 149.234 145.59 149.107C145.158 148.979 144.722 148.822 144.281 148.641C143.839 148.459 143.442 148.239 143.084 147.979C142.726 147.719 142.437 147.381 142.212 146.959C141.986 146.537 141.873 146.018 141.873 145.395C141.873 144.503 142.094 143.728 142.54 143.081C142.986 142.434 143.599 141.929 144.384 141.576C145.168 141.218 146.085 141.041 147.134 141.041C147.909 141.041 148.644 141.139 149.35 141.331C149.919 141.487 150.419 141.703 150.851 141.978C151.027 142.09 151.096 142.316 151.012 142.507L150.512 143.655C150.409 143.89 150.12 143.988 149.904 143.851C149.561 143.635 149.184 143.468 148.782 143.341C148.218 143.164 147.62 143.076 146.997 143.076C146.374 143.076 145.874 143.159 145.428 143.331C144.982 143.498 144.644 143.738 144.408 144.042C144.173 144.346 144.055 144.714 144.055 145.14C144.055 145.503 144.163 145.802 144.374 146.032C144.59 146.268 144.874 146.459 145.242 146.616C145.604 146.773 146.007 146.92 146.443 147.062C146.879 147.204 147.316 147.361 147.752 147.528C148.183 147.695 148.581 147.905 148.948 148.151C149.311 148.396 149.61 148.719 149.841 149.121C150.071 149.523 150.189 150.023 150.189 150.617C150.189 151.509 149.963 152.284 149.512 152.941C149.061 153.598 148.438 154.103 147.644 154.456C146.85 154.814 145.918 154.99 144.859 154.99L144.849 155Z" fill="#10709C"/>
<path d="M155.724 155C155.092 155 154.479 154.931 153.89 154.794C153.302 154.657 152.763 154.466 152.273 154.22C151.91 154.039 151.591 153.848 151.316 153.642C151.15 153.519 151.096 153.294 151.189 153.112L151.753 151.965C151.87 151.725 152.174 151.651 152.39 151.808C152.621 151.98 152.866 152.137 153.126 152.274C153.547 152.495 153.998 152.661 154.474 152.779C154.954 152.897 155.44 152.955 155.935 152.955C156.523 152.955 157.038 152.877 157.484 152.72C157.931 152.563 158.274 152.338 158.514 152.039C158.754 151.74 158.877 151.391 158.877 150.989C158.877 150.612 158.769 150.313 158.548 150.087C158.328 149.862 158.033 149.67 157.666 149.523C157.298 149.376 156.896 149.234 156.465 149.107C156.033 148.979 155.597 148.822 155.155 148.641C154.714 148.459 154.317 148.239 153.959 147.979C153.601 147.719 153.312 147.381 153.086 146.959C152.861 146.537 152.748 146.018 152.748 145.395C152.748 144.503 152.969 143.728 153.415 143.081C153.861 142.434 154.474 141.929 155.258 141.576C156.043 141.218 156.96 141.041 158.009 141.041C158.784 141.041 159.519 141.139 160.225 141.331C160.794 141.487 161.294 141.703 161.725 141.978C161.902 142.09 161.971 142.316 161.887 142.507L161.387 143.655C161.284 143.89 160.995 143.988 160.779 143.851C160.436 143.635 160.058 143.468 159.656 143.341C159.093 143.164 158.494 143.076 157.872 143.076C157.249 143.076 156.749 143.159 156.303 143.331C155.857 143.498 155.518 143.738 155.283 144.042C155.048 144.346 154.93 144.714 154.93 145.14C154.93 145.503 155.038 145.802 155.249 146.032C155.464 146.268 155.749 146.459 156.116 146.616C156.479 146.773 156.881 146.92 157.318 147.062C157.754 147.204 158.19 147.361 158.627 147.528C159.058 147.695 159.455 147.905 159.823 148.151C160.186 148.396 160.485 148.719 160.715 149.121C160.946 149.523 161.064 150.023 161.064 150.617C161.064 151.509 160.838 152.284 160.387 152.941C159.936 153.598 159.313 154.103 158.519 154.456C157.725 154.814 156.793 154.99 155.734 154.99L155.724 155Z" fill="#10709C"/>
</g>
<defs>
<clipPath id="clip0_9_90">
<rect width="110.184" height="97" fill="white" transform="translate(65 58)"/>
</clipPath>
</defs>
</svg>
