<svg width="240" height="213" viewBox="0 0 240 213" fill="none" xmlns="http://www.w3.org/2000/svg">
<rect width="240" height="213" rx="30" fill="#5135A9"/>
<path d="M118.134 40.0142L118.254 128.947C118.254 128.947 119.947 141.811 130.968 136.574C141.989 131.336 136.922 126.908 144.146 124.754C151.369 122.6 157.782 119.859 160.833 106.255C163.884 92.6509 167.178 96.235 166.248 91.8339C165.318 87.4327 167.957 78.9849 168.616 73.7783C169.275 68.5717 159.723 61.4458 159.723 61.4458C159.723 61.4458 168.552 41.4748 146.677 39.4169C146.677 39.4169 141.151 32.4798 133.144 32.3141C125.138 32.1484 118.134 40.0142 118.134 40.0142Z" fill="#5135A9"/>
<path d="M126.316 55.7421C126.316 55.7421 123.892 51.3525 128.736 48.1268C129.958 47.3136 132.374 46.8819 134.726 47.9649" stroke="white" stroke-width="4.61095" stroke-miterlimit="10" stroke-linecap="round"/>
<path d="M118.254 107.693C118.254 107.693 120.43 104.502 124.435 104.933C125.549 105.022 126.613 105.416 127.502 106.069C128.391 106.721 129.069 107.606 129.455 108.618" stroke="white" stroke-width="4.61095" stroke-miterlimit="10" stroke-linecap="round"/>
<path d="M127.062 93.1866C127.062 93.1866 124.643 88.8086 129.482 85.5752C130.704 84.762 133.116 84.3265 135.472 85.4133" stroke="white" stroke-width="4.61095" stroke-miterlimit="10" stroke-linecap="round"/>
<path d="M151.262 70.5604C151.262 70.5604 150.687 61.1568 139.186 60.0122" stroke="white" stroke-width="4.61095" stroke-miterlimit="10" stroke-linecap="round"/>
<path d="M139.39 103.369C141.8 105.529 144.814 106.957 148.059 107.477C152.128 108.136 157.846 107.373 161.851 102.825C170.972 92.4775 165.046 80.2221 152.268 77.5089" stroke="white" stroke-width="4.61095" stroke-miterlimit="10" stroke-linecap="round"/>
<path d="M138.228 41.3708C138.228 41.3708 145.216 37.7558 151.282 40.3572C166.528 46.9011 159.727 61.4458 159.727 61.4458C167.506 66.3981 169.087 72.5913 168.512 77.3239C168.512 77.3239 167.163 82.9583 165.441 84.7272" stroke="white" stroke-width="4.61095" stroke-miterlimit="10" stroke-linecap="round"/>
<path d="M143.806 37.8292C140.045 31.5974 131.232 31.6629 127.354 33.1313C125.117 33.9852 123.118 35.3339 121.519 37.0688C119.919 38.8037 118.764 40.8765 118.146 43.1206C118.13 43.3451 118.13 43.5705 118.146 43.795C118.146 46.8781 118.17 50.6434 118.146 53.8152C118.146 57.3068 118.098 65.955 118.174 80.2568C118.274 98.0311 118.25 114.611 118.174 126.23C118.146 129.228 117.974 130.223 121.041 133.788C122.842 135.88 126.524 137.484 130.968 136.582C139.39 134.867 139.39 126.392 139.39 126.392" stroke="white" stroke-width="4.61095" stroke-miterlimit="10" stroke-linecap="round"/>
<path d="M143.806 91.8301C143.806 91.8301 133.148 87.9068 133.148 76.0907" stroke="white" stroke-width="4.61095" stroke-miterlimit="10" stroke-linecap="round"/>
<path d="M140.073 113.94C140.073 113.94 148.382 112.098 149.772 121.856" stroke="white" stroke-width="4.61095" stroke-miterlimit="10" stroke-linecap="round"/>
<path d="M118.134 31C118.134 31 86.927 31.7245 75.4066 60.5248C68.9097 76.7459 72.843 89.7374 77.7666 98.8904C80.4061 103.839 85.9567 109.893 89.878 113.99C94.2945 118.615 101.271 128.33 100.763 142.124C100.656 145.053 101.81 146.575 105.052 146.791L112.024 146.856L135.776 146.633L142.648 146.567C143.2 146.554 143.751 146.623 144.281 146.771C146.538 147.45 147.68 149.33 147.811 151.396C148.015 154.556 145.084 156.876 141.754 156.792L134.606 156.826L111.932 157.065C111.932 157.065 101.015 155.689 100.568 161.69" stroke="white" stroke-width="4.61095" stroke-miterlimit="10" stroke-linecap="round"/>
<path d="M138.479 124.696C146.226 125.852 161.288 122.839 160.841 103.866" stroke="white" stroke-width="4.61095" stroke-miterlimit="10" stroke-linecap="round"/>
<path d="M106.905 168.303L138.99 167.96" stroke="white" stroke-width="5.4025" stroke-miterlimit="10" stroke-linecap="round"/>
<path d="M146.166 170.538C147.642 170.538 148.838 169.384 148.838 167.96C148.838 166.536 147.642 165.382 146.166 165.382C144.691 165.382 143.495 166.536 143.495 167.96C143.495 169.384 144.691 170.538 146.166 170.538Z" fill="white"/>
</svg>
